M48
;GenerationSoftware,Autodesk,EAGLE,9.6.2*%
;CreationDate,2023-12-16T13:59:43Z*%
FMAT,2
ICI,OFF
METRIC,TZ,000.000
T10C0.350
T9C0.700
T8C0.780
T7C0.800
T6C0.813
T5C1.016
T4C1.100
T3C1.600
T2C1.800
T1C2.800
%
G90
M71
T1
X3632Y3581
X76276Y3658
X76302Y46609
X3759Y46431
T2
X9770Y35865
T3
X5270Y35865
T4
X4496Y9844
X4394Y25335
X4394Y20335
X4496Y14844
T5
X29489Y4470
X21869Y1930
X29489Y1930
X26949Y4470
X26949Y1930
X24409Y4470
X24409Y1930
X21869Y4470
T6
X20320Y13716
X20320Y16256
X37516Y3277
X34976Y3277
X40056Y3277
X12700Y13716
X20320Y26416
X20320Y23876
X20320Y21336
X20320Y18796
X12700Y26416
X12700Y23876
X12700Y21336
X12700Y18796
X12700Y16256
X12700Y11176
X12700Y8636
X20320Y8636
X20320Y11176
T7
X62332Y47117
X67412Y47117
X64872Y47117
X69952Y31877
X59792Y47117
X59792Y31877
X62332Y31877
X64872Y31877
X67412Y31877
X69952Y47117
T8
X71374Y14064
X58674Y14064
X61214Y14064
X63754Y14064
X66294Y14064
X68834Y14064
X73914Y14064
X76454Y14064
X76454Y22004
X73914Y22004
X71374Y22004
X68834Y22004
X66294Y22004
X63754Y22004
X61214Y22004
X58674Y22004
T9
X36576Y37318
X36576Y34818
X22479Y37369
X22479Y34869
X31514Y24656
X27922Y21064
T10
X31750Y12446
X31750Y5334
X71120Y29972
X73152Y29464
X40132Y19304
X30861Y18669
X33528Y13208
X24409Y4470
X46990Y17784
X34544Y7620
X50546Y10414
X50546Y18034
X67310Y2794
X30988Y9398
X28448Y6858
X71374Y2286
X72136Y31750
X30056Y17188
X9525Y9779
X9144Y12446
X36068Y17780
X38862Y16510
X33528Y6604
X33190Y8974
X43942Y27432
X51308Y23876
M30