G04 EAGLE Gerber RS-274X export*
G75*
%MOMM*%
%FSLAX34Y34*%
%LPD*%
%INBottom Copper*%
%IPPOS*%
%AMOC8*
5,1,8,0,0,1.08239X$1,22.5*%
G01*
%ADD10R,1.651000X1.651000*%
%ADD11C,1.651000*%
%ADD12C,1.320800*%
%ADD13R,1.650000X1.650000*%
%ADD14C,1.650000*%
%ADD15P,1.649562X8X22.500000*%
%ADD16C,1.288000*%
%ADD17R,1.400000X1.400000*%
%ADD18C,1.400000*%
%ADD19C,0.756400*%
%ADD20C,0.254000*%
%ADD21C,0.635000*%

G36*
X210934Y10939D02*
X210934Y10939D01*
X211005Y10941D01*
X211054Y10959D01*
X211106Y10967D01*
X211169Y11001D01*
X211236Y11026D01*
X211277Y11058D01*
X211323Y11083D01*
X211373Y11135D01*
X211429Y11179D01*
X211457Y11223D01*
X211493Y11261D01*
X211523Y11326D01*
X211562Y11386D01*
X211574Y11437D01*
X211596Y11484D01*
X211604Y11555D01*
X211622Y11625D01*
X211618Y11677D01*
X211623Y11728D01*
X211608Y11799D01*
X211602Y11870D01*
X211582Y11918D01*
X211571Y11969D01*
X211534Y12030D01*
X211506Y12096D01*
X211461Y12152D01*
X211445Y12180D01*
X211427Y12195D01*
X211401Y12227D01*
X208533Y15095D01*
X208533Y17781D01*
X217932Y17781D01*
X217952Y17784D01*
X217971Y17782D01*
X218073Y17804D01*
X218175Y17821D01*
X218192Y17830D01*
X218212Y17834D01*
X218301Y17887D01*
X218392Y17936D01*
X218406Y17950D01*
X218423Y17960D01*
X218490Y18039D01*
X218561Y18114D01*
X218570Y18132D01*
X218583Y18147D01*
X218621Y18243D01*
X218665Y18337D01*
X218667Y18357D01*
X218675Y18375D01*
X218693Y18542D01*
X218693Y19305D01*
X218695Y19305D01*
X218695Y18542D01*
X218698Y18522D01*
X218696Y18503D01*
X218718Y18401D01*
X218735Y18299D01*
X218744Y18282D01*
X218748Y18262D01*
X218801Y18173D01*
X218850Y18082D01*
X218864Y18068D01*
X218874Y18051D01*
X218953Y17984D01*
X219028Y17913D01*
X219046Y17904D01*
X219061Y17891D01*
X219157Y17852D01*
X219251Y17809D01*
X219271Y17807D01*
X219289Y17799D01*
X219456Y17781D01*
X228855Y17781D01*
X228855Y15095D01*
X225987Y12227D01*
X225945Y12169D01*
X225895Y12117D01*
X225874Y12070D01*
X225843Y12028D01*
X225822Y11959D01*
X225792Y11894D01*
X225786Y11842D01*
X225771Y11792D01*
X225773Y11721D01*
X225765Y11650D01*
X225776Y11599D01*
X225777Y11547D01*
X225802Y11479D01*
X225817Y11409D01*
X225844Y11364D01*
X225862Y11316D01*
X225906Y11260D01*
X225943Y11198D01*
X225983Y11164D01*
X226015Y11124D01*
X226076Y11085D01*
X226130Y11038D01*
X226178Y11019D01*
X226222Y10991D01*
X226292Y10973D01*
X226358Y10946D01*
X226430Y10938D01*
X226461Y10930D01*
X226484Y10932D01*
X226525Y10928D01*
X237700Y10928D01*
X237771Y10939D01*
X237842Y10941D01*
X237891Y10959D01*
X237943Y10967D01*
X238006Y11001D01*
X238073Y11026D01*
X238114Y11058D01*
X238160Y11083D01*
X238209Y11135D01*
X238265Y11179D01*
X238294Y11223D01*
X238329Y11261D01*
X238360Y11326D01*
X238398Y11386D01*
X238411Y11437D01*
X238433Y11484D01*
X238441Y11555D01*
X238458Y11625D01*
X238454Y11677D01*
X238460Y11728D01*
X238445Y11799D01*
X238439Y11870D01*
X238419Y11918D01*
X238408Y11969D01*
X238371Y12030D01*
X238343Y12096D01*
X238298Y12152D01*
X238282Y12180D01*
X238264Y12195D01*
X238238Y12227D01*
X234949Y15516D01*
X234949Y16764D01*
X234946Y16784D01*
X234948Y16803D01*
X234926Y16905D01*
X234910Y17007D01*
X234900Y17024D01*
X234896Y17044D01*
X234843Y17133D01*
X234794Y17224D01*
X234780Y17238D01*
X234770Y17255D01*
X234691Y17322D01*
X234616Y17394D01*
X234598Y17402D01*
X234583Y17415D01*
X234487Y17454D01*
X234393Y17497D01*
X234373Y17499D01*
X234355Y17507D01*
X234188Y17525D01*
X232522Y17525D01*
X229443Y20604D01*
X229369Y20657D01*
X229300Y20717D01*
X229270Y20729D01*
X229244Y20748D01*
X229157Y20775D01*
X229072Y20809D01*
X229031Y20813D01*
X229009Y20820D01*
X228976Y20819D01*
X228905Y20827D01*
X220217Y20827D01*
X220217Y29465D01*
X222903Y29465D01*
X225014Y27354D01*
X225072Y27312D01*
X225124Y27262D01*
X225171Y27241D01*
X225213Y27210D01*
X225282Y27189D01*
X225347Y27159D01*
X225399Y27153D01*
X225449Y27138D01*
X225520Y27140D01*
X225591Y27132D01*
X225642Y27143D01*
X225694Y27144D01*
X225762Y27169D01*
X225832Y27184D01*
X225877Y27211D01*
X225925Y27229D01*
X225981Y27273D01*
X226043Y27310D01*
X226077Y27350D01*
X226117Y27382D01*
X226156Y27443D01*
X226203Y27497D01*
X226222Y27545D01*
X226250Y27589D01*
X226268Y27659D01*
X226295Y27725D01*
X226303Y27797D01*
X226311Y27828D01*
X226309Y27851D01*
X226313Y27892D01*
X226313Y37553D01*
X226302Y37624D01*
X226300Y37695D01*
X226282Y37744D01*
X226274Y37796D01*
X226240Y37859D01*
X226215Y37926D01*
X226183Y37967D01*
X226158Y38013D01*
X226106Y38062D01*
X226062Y38118D01*
X226018Y38147D01*
X225980Y38182D01*
X225915Y38213D01*
X225855Y38251D01*
X225804Y38264D01*
X225757Y38286D01*
X225686Y38294D01*
X225616Y38311D01*
X225564Y38307D01*
X225513Y38313D01*
X225442Y38298D01*
X225371Y38292D01*
X225323Y38272D01*
X225272Y38261D01*
X225211Y38224D01*
X225145Y38196D01*
X225089Y38151D01*
X225061Y38135D01*
X225046Y38117D01*
X225014Y38091D01*
X222482Y35559D01*
X214906Y35559D01*
X209549Y40916D01*
X209549Y48492D01*
X214906Y53849D01*
X222482Y53849D01*
X224506Y51825D01*
X224564Y51783D01*
X224616Y51734D01*
X224663Y51712D01*
X224705Y51681D01*
X224774Y51660D01*
X224839Y51630D01*
X224891Y51624D01*
X224941Y51609D01*
X225012Y51611D01*
X225083Y51603D01*
X225134Y51614D01*
X225186Y51615D01*
X225254Y51640D01*
X225324Y51655D01*
X225369Y51682D01*
X225417Y51700D01*
X225473Y51745D01*
X225535Y51781D01*
X225569Y51821D01*
X225609Y51853D01*
X225648Y51914D01*
X225695Y51968D01*
X225714Y52017D01*
X225742Y52060D01*
X225760Y52130D01*
X225787Y52196D01*
X225795Y52268D01*
X225803Y52299D01*
X225801Y52322D01*
X225805Y52363D01*
X225805Y82438D01*
X285862Y142495D01*
X331267Y142495D01*
X331357Y142509D01*
X331448Y142517D01*
X331478Y142529D01*
X331510Y142534D01*
X331590Y142577D01*
X331674Y142613D01*
X331706Y142639D01*
X331727Y142650D01*
X331749Y142673D01*
X331805Y142718D01*
X347502Y158415D01*
X347555Y158489D01*
X347615Y158558D01*
X347627Y158588D01*
X347646Y158614D01*
X347673Y158701D01*
X347707Y158786D01*
X347711Y158827D01*
X347718Y158849D01*
X347717Y158882D01*
X347725Y158953D01*
X347725Y194198D01*
X349362Y195835D01*
X396295Y195835D01*
X396385Y195849D01*
X396476Y195857D01*
X396505Y195869D01*
X396537Y195874D01*
X396618Y195917D01*
X396702Y195953D01*
X396734Y195979D01*
X396755Y195990D01*
X396777Y196013D01*
X396833Y196058D01*
X399122Y198347D01*
X403518Y198347D01*
X406627Y195238D01*
X406627Y190842D01*
X403518Y187733D01*
X399122Y187733D01*
X396833Y190022D01*
X396759Y190075D01*
X396689Y190135D01*
X396659Y190147D01*
X396633Y190166D01*
X396546Y190193D01*
X396461Y190227D01*
X396420Y190231D01*
X396398Y190238D01*
X396366Y190237D01*
X396295Y190245D01*
X354076Y190245D01*
X354056Y190242D01*
X354037Y190244D01*
X353935Y190222D01*
X353833Y190206D01*
X353816Y190196D01*
X353796Y190192D01*
X353707Y190139D01*
X353616Y190090D01*
X353602Y190076D01*
X353585Y190066D01*
X353518Y189987D01*
X353446Y189912D01*
X353438Y189894D01*
X353425Y189879D01*
X353386Y189783D01*
X353343Y189689D01*
X353341Y189669D01*
X353333Y189651D01*
X353315Y189484D01*
X353315Y156322D01*
X351455Y154462D01*
X335679Y138686D01*
X335637Y138628D01*
X335587Y138576D01*
X335565Y138529D01*
X335535Y138487D01*
X335514Y138418D01*
X335484Y138353D01*
X335478Y138301D01*
X335463Y138251D01*
X335465Y138180D01*
X335457Y138109D01*
X335468Y138058D01*
X335469Y138006D01*
X335494Y137938D01*
X335509Y137868D01*
X335536Y137823D01*
X335554Y137775D01*
X335598Y137719D01*
X335635Y137657D01*
X335675Y137623D01*
X335707Y137583D01*
X335768Y137544D01*
X335822Y137497D01*
X335870Y137478D01*
X335914Y137450D01*
X335984Y137432D01*
X336050Y137405D01*
X336122Y137397D01*
X336153Y137389D01*
X336176Y137391D01*
X336217Y137387D01*
X337478Y137387D01*
X340587Y134278D01*
X340587Y129882D01*
X337478Y126773D01*
X333082Y126773D01*
X330793Y129062D01*
X330719Y129115D01*
X330649Y129175D01*
X330619Y129187D01*
X330593Y129206D01*
X330506Y129233D01*
X330421Y129267D01*
X330380Y129271D01*
X330358Y129278D01*
X330326Y129277D01*
X330255Y129285D01*
X322017Y129285D01*
X321947Y129274D01*
X321875Y129272D01*
X321826Y129254D01*
X321775Y129246D01*
X321711Y129212D01*
X321644Y129187D01*
X321603Y129155D01*
X321557Y129130D01*
X321508Y129078D01*
X321452Y129034D01*
X321424Y128990D01*
X321388Y128952D01*
X321358Y128887D01*
X321319Y128827D01*
X321306Y128776D01*
X321284Y128729D01*
X321276Y128658D01*
X321259Y128588D01*
X321263Y128536D01*
X321257Y128485D01*
X321272Y128414D01*
X321278Y128343D01*
X321298Y128295D01*
X321309Y128244D01*
X321346Y128183D01*
X321374Y128117D01*
X321419Y128061D01*
X321436Y128033D01*
X321453Y128018D01*
X321479Y127986D01*
X322807Y126658D01*
X322807Y122262D01*
X320518Y119973D01*
X320465Y119899D01*
X320405Y119829D01*
X320393Y119799D01*
X320374Y119773D01*
X320347Y119686D01*
X320313Y119601D01*
X320309Y119560D01*
X320302Y119538D01*
X320303Y119506D01*
X320295Y119435D01*
X320295Y58365D01*
X320309Y58275D01*
X320317Y58184D01*
X320329Y58155D01*
X320334Y58123D01*
X320377Y58042D01*
X320413Y57958D01*
X320439Y57926D01*
X320450Y57905D01*
X320473Y57883D01*
X320518Y57827D01*
X322807Y55538D01*
X322807Y51142D01*
X319698Y48033D01*
X315302Y48033D01*
X312193Y51142D01*
X312193Y55538D01*
X314482Y57827D01*
X314535Y57901D01*
X314595Y57971D01*
X314607Y58001D01*
X314626Y58027D01*
X314653Y58114D01*
X314687Y58199D01*
X314691Y58240D01*
X314698Y58262D01*
X314697Y58294D01*
X314705Y58365D01*
X314705Y89463D01*
X314694Y89533D01*
X314692Y89605D01*
X314674Y89654D01*
X314666Y89705D01*
X314632Y89769D01*
X314607Y89836D01*
X314575Y89877D01*
X314550Y89923D01*
X314498Y89972D01*
X314454Y90028D01*
X314410Y90056D01*
X314372Y90092D01*
X314307Y90122D01*
X314247Y90161D01*
X314196Y90174D01*
X314149Y90196D01*
X314078Y90204D01*
X314008Y90221D01*
X313956Y90217D01*
X313905Y90223D01*
X313834Y90208D01*
X313763Y90202D01*
X313715Y90182D01*
X313664Y90171D01*
X313603Y90134D01*
X313537Y90106D01*
X313481Y90061D01*
X313453Y90044D01*
X313438Y90027D01*
X313406Y90001D01*
X312078Y88673D01*
X307682Y88673D01*
X305393Y90962D01*
X305319Y91015D01*
X305249Y91075D01*
X305219Y91087D01*
X305193Y91106D01*
X305106Y91133D01*
X305021Y91167D01*
X304980Y91171D01*
X304958Y91178D01*
X304926Y91177D01*
X304855Y91185D01*
X288036Y91185D01*
X288016Y91182D01*
X287997Y91184D01*
X287895Y91162D01*
X287793Y91146D01*
X287776Y91136D01*
X287756Y91132D01*
X287667Y91079D01*
X287576Y91030D01*
X287562Y91016D01*
X287545Y91006D01*
X287478Y90927D01*
X287406Y90852D01*
X287398Y90834D01*
X287385Y90819D01*
X287346Y90723D01*
X287303Y90629D01*
X287301Y90609D01*
X287293Y90591D01*
X287275Y90424D01*
X287275Y73605D01*
X287289Y73515D01*
X287297Y73424D01*
X287309Y73395D01*
X287314Y73363D01*
X287357Y73282D01*
X287393Y73198D01*
X287419Y73166D01*
X287430Y73145D01*
X287453Y73123D01*
X287498Y73067D01*
X289787Y70778D01*
X289787Y66382D01*
X286678Y63273D01*
X282282Y63273D01*
X279173Y66382D01*
X279173Y70778D01*
X281462Y73067D01*
X281515Y73141D01*
X281575Y73211D01*
X281587Y73241D01*
X281606Y73267D01*
X281633Y73354D01*
X281667Y73439D01*
X281671Y73480D01*
X281678Y73502D01*
X281677Y73534D01*
X281685Y73605D01*
X281685Y95138D01*
X283322Y96775D01*
X304855Y96775D01*
X304945Y96789D01*
X305036Y96797D01*
X305065Y96809D01*
X305097Y96814D01*
X305178Y96857D01*
X305262Y96893D01*
X305294Y96919D01*
X305315Y96930D01*
X305337Y96953D01*
X305393Y96998D01*
X307682Y99287D01*
X312078Y99287D01*
X313406Y97959D01*
X313464Y97917D01*
X313516Y97868D01*
X313563Y97846D01*
X313605Y97816D01*
X313674Y97794D01*
X313739Y97764D01*
X313791Y97759D01*
X313841Y97743D01*
X313912Y97745D01*
X313983Y97737D01*
X314034Y97748D01*
X314086Y97750D01*
X314154Y97774D01*
X314224Y97789D01*
X314269Y97816D01*
X314317Y97834D01*
X314373Y97879D01*
X314435Y97916D01*
X314469Y97955D01*
X314509Y97988D01*
X314548Y98048D01*
X314595Y98103D01*
X314614Y98151D01*
X314642Y98195D01*
X314660Y98264D01*
X314687Y98331D01*
X314695Y98402D01*
X314703Y98433D01*
X314701Y98456D01*
X314705Y98497D01*
X314705Y119435D01*
X314691Y119525D01*
X314683Y119616D01*
X314671Y119645D01*
X314666Y119677D01*
X314623Y119758D01*
X314587Y119842D01*
X314561Y119874D01*
X314550Y119895D01*
X314527Y119917D01*
X314482Y119973D01*
X312193Y122262D01*
X312193Y126658D01*
X313521Y127986D01*
X313563Y128044D01*
X313612Y128096D01*
X313634Y128143D01*
X313664Y128185D01*
X313686Y128254D01*
X313716Y128319D01*
X313721Y128371D01*
X313737Y128421D01*
X313735Y128492D01*
X313743Y128563D01*
X313732Y128614D01*
X313730Y128666D01*
X313706Y128734D01*
X313691Y128804D01*
X313664Y128849D01*
X313646Y128897D01*
X313601Y128953D01*
X313564Y129015D01*
X313525Y129049D01*
X313492Y129089D01*
X313432Y129128D01*
X313377Y129175D01*
X313329Y129194D01*
X313285Y129222D01*
X313216Y129240D01*
X313149Y129267D01*
X313078Y129275D01*
X313047Y129283D01*
X313024Y129281D01*
X312983Y129285D01*
X291033Y129285D01*
X290943Y129271D01*
X290852Y129263D01*
X290822Y129251D01*
X290790Y129246D01*
X290710Y129203D01*
X290626Y129167D01*
X290594Y129141D01*
X290573Y129130D01*
X290551Y129107D01*
X290495Y129062D01*
X247112Y85679D01*
X247059Y85605D01*
X246999Y85536D01*
X246987Y85506D01*
X246968Y85480D01*
X246941Y85393D01*
X246907Y85308D01*
X246903Y85267D01*
X246896Y85245D01*
X246897Y85212D01*
X246889Y85141D01*
X246889Y54610D01*
X246892Y54590D01*
X246890Y54571D01*
X246912Y54469D01*
X246928Y54367D01*
X246938Y54350D01*
X246942Y54330D01*
X246995Y54241D01*
X247044Y54150D01*
X247058Y54136D01*
X247068Y54119D01*
X247147Y54052D01*
X247222Y53980D01*
X247240Y53972D01*
X247255Y53959D01*
X247351Y53920D01*
X247445Y53877D01*
X247465Y53875D01*
X247483Y53867D01*
X247650Y53849D01*
X247882Y53849D01*
X253239Y48492D01*
X253239Y40916D01*
X247882Y35559D01*
X240306Y35559D01*
X234949Y40916D01*
X234949Y48492D01*
X240306Y53849D01*
X240538Y53849D01*
X240558Y53852D01*
X240577Y53850D01*
X240679Y53872D01*
X240781Y53888D01*
X240798Y53898D01*
X240818Y53902D01*
X240907Y53955D01*
X240998Y54004D01*
X241012Y54018D01*
X241029Y54028D01*
X241096Y54107D01*
X241168Y54182D01*
X241176Y54200D01*
X241189Y54215D01*
X241228Y54311D01*
X241271Y54405D01*
X241273Y54425D01*
X241281Y54443D01*
X241299Y54610D01*
X241299Y87772D01*
X288402Y134875D01*
X330255Y134875D01*
X330344Y134889D01*
X330436Y134897D01*
X330465Y134909D01*
X330497Y134914D01*
X330578Y134957D01*
X330662Y134993D01*
X330694Y135019D01*
X330715Y135030D01*
X330737Y135053D01*
X330793Y135098D01*
X331301Y135606D01*
X331343Y135664D01*
X331392Y135716D01*
X331414Y135763D01*
X331444Y135805D01*
X331466Y135874D01*
X331496Y135939D01*
X331501Y135991D01*
X331517Y136041D01*
X331515Y136112D01*
X331523Y136183D01*
X331512Y136234D01*
X331510Y136286D01*
X331486Y136354D01*
X331471Y136424D01*
X331444Y136469D01*
X331426Y136517D01*
X331381Y136573D01*
X331344Y136635D01*
X331305Y136669D01*
X331272Y136709D01*
X331212Y136748D01*
X331157Y136795D01*
X331109Y136814D01*
X331065Y136842D01*
X330996Y136860D01*
X330929Y136887D01*
X330858Y136895D01*
X330827Y136903D01*
X330804Y136901D01*
X330763Y136905D01*
X288493Y136905D01*
X288403Y136891D01*
X288312Y136883D01*
X288282Y136871D01*
X288250Y136866D01*
X288170Y136823D01*
X288086Y136787D01*
X288054Y136761D01*
X288033Y136750D01*
X288011Y136727D01*
X287955Y136682D01*
X231618Y80345D01*
X231565Y80271D01*
X231505Y80202D01*
X231493Y80172D01*
X231474Y80146D01*
X231447Y80059D01*
X231413Y79974D01*
X231409Y79933D01*
X231402Y79911D01*
X231403Y79878D01*
X231395Y79807D01*
X231395Y50999D01*
X231409Y50908D01*
X231417Y50818D01*
X231429Y50788D01*
X231434Y50756D01*
X231477Y50675D01*
X231513Y50591D01*
X231539Y50559D01*
X231550Y50538D01*
X231573Y50516D01*
X231618Y50460D01*
X231903Y50175D01*
X231903Y26365D01*
X231917Y26275D01*
X231925Y26184D01*
X231937Y26154D01*
X231942Y26122D01*
X231985Y26042D01*
X232021Y25958D01*
X232047Y25925D01*
X232058Y25905D01*
X232081Y25883D01*
X232126Y25827D01*
X234367Y23586D01*
X234383Y23574D01*
X234395Y23559D01*
X234482Y23502D01*
X234566Y23442D01*
X234585Y23436D01*
X234602Y23426D01*
X234703Y23400D01*
X234801Y23370D01*
X234821Y23370D01*
X234841Y23365D01*
X234944Y23374D01*
X235047Y23376D01*
X235066Y23383D01*
X235086Y23385D01*
X235181Y23425D01*
X235278Y23461D01*
X235294Y23473D01*
X235312Y23481D01*
X235443Y23586D01*
X240306Y28449D01*
X247882Y28449D01*
X253239Y23092D01*
X253239Y15516D01*
X249950Y12227D01*
X249908Y12169D01*
X249859Y12117D01*
X249837Y12070D01*
X249806Y12028D01*
X249785Y11959D01*
X249755Y11894D01*
X249749Y11842D01*
X249734Y11792D01*
X249736Y11721D01*
X249728Y11650D01*
X249739Y11599D01*
X249740Y11547D01*
X249765Y11479D01*
X249780Y11409D01*
X249807Y11364D01*
X249825Y11316D01*
X249870Y11260D01*
X249906Y11198D01*
X249946Y11164D01*
X249978Y11124D01*
X250039Y11085D01*
X250093Y11038D01*
X250142Y11019D01*
X250185Y10991D01*
X250255Y10973D01*
X250321Y10946D01*
X250393Y10938D01*
X250424Y10930D01*
X250447Y10932D01*
X250488Y10928D01*
X263100Y10928D01*
X263171Y10939D01*
X263242Y10941D01*
X263291Y10959D01*
X263343Y10967D01*
X263406Y11001D01*
X263473Y11026D01*
X263514Y11058D01*
X263560Y11083D01*
X263609Y11135D01*
X263665Y11179D01*
X263694Y11223D01*
X263729Y11261D01*
X263760Y11326D01*
X263798Y11386D01*
X263811Y11437D01*
X263833Y11484D01*
X263841Y11555D01*
X263858Y11625D01*
X263854Y11677D01*
X263860Y11728D01*
X263845Y11799D01*
X263839Y11870D01*
X263819Y11918D01*
X263808Y11969D01*
X263771Y12030D01*
X263743Y12096D01*
X263698Y12152D01*
X263682Y12180D01*
X263664Y12195D01*
X263638Y12227D01*
X260349Y15516D01*
X260349Y23092D01*
X265706Y28449D01*
X273282Y28449D01*
X278639Y23092D01*
X278639Y15516D01*
X275350Y12227D01*
X275308Y12169D01*
X275259Y12117D01*
X275237Y12070D01*
X275206Y12028D01*
X275185Y11959D01*
X275155Y11894D01*
X275149Y11842D01*
X275134Y11792D01*
X275136Y11721D01*
X275128Y11650D01*
X275139Y11599D01*
X275140Y11547D01*
X275165Y11479D01*
X275180Y11409D01*
X275207Y11364D01*
X275225Y11316D01*
X275270Y11260D01*
X275306Y11198D01*
X275346Y11164D01*
X275378Y11124D01*
X275439Y11085D01*
X275493Y11038D01*
X275542Y11019D01*
X275585Y10991D01*
X275655Y10973D01*
X275721Y10946D01*
X275793Y10938D01*
X275824Y10930D01*
X275847Y10932D01*
X275888Y10928D01*
X288500Y10928D01*
X288571Y10939D01*
X288642Y10941D01*
X288691Y10959D01*
X288743Y10967D01*
X288806Y11001D01*
X288873Y11026D01*
X288914Y11058D01*
X288960Y11083D01*
X289009Y11135D01*
X289065Y11179D01*
X289094Y11223D01*
X289129Y11261D01*
X289160Y11326D01*
X289198Y11386D01*
X289211Y11437D01*
X289233Y11484D01*
X289241Y11555D01*
X289258Y11625D01*
X289254Y11677D01*
X289260Y11728D01*
X289245Y11799D01*
X289239Y11870D01*
X289219Y11918D01*
X289208Y11969D01*
X289171Y12030D01*
X289143Y12096D01*
X289098Y12152D01*
X289082Y12180D01*
X289064Y12195D01*
X289038Y12227D01*
X285749Y15516D01*
X285749Y23092D01*
X291106Y28449D01*
X298682Y28449D01*
X304039Y23092D01*
X304039Y15753D01*
X304042Y15733D01*
X304040Y15714D01*
X304062Y15612D01*
X304078Y15510D01*
X304088Y15493D01*
X304092Y15473D01*
X304145Y15384D01*
X304194Y15293D01*
X304208Y15279D01*
X304218Y15262D01*
X304297Y15195D01*
X304372Y15123D01*
X304390Y15115D01*
X304405Y15102D01*
X304501Y15063D01*
X304595Y15020D01*
X304615Y15018D01*
X304633Y15010D01*
X304800Y14992D01*
X318816Y14992D01*
X318887Y15003D01*
X318959Y15005D01*
X319008Y15023D01*
X319059Y15031D01*
X319122Y15065D01*
X319190Y15090D01*
X319230Y15122D01*
X319276Y15147D01*
X319326Y15198D01*
X319382Y15243D01*
X319410Y15287D01*
X319446Y15325D01*
X319476Y15390D01*
X319515Y15450D01*
X319527Y15501D01*
X319549Y15548D01*
X319557Y15619D01*
X319575Y15689D01*
X319571Y15741D01*
X319576Y15792D01*
X319561Y15863D01*
X319556Y15934D01*
X319535Y15982D01*
X319524Y16033D01*
X319487Y16094D01*
X319459Y16160D01*
X319414Y16216D01*
X319398Y16244D01*
X319380Y16259D01*
X319354Y16291D01*
X299922Y35723D01*
X299906Y35735D01*
X299894Y35750D01*
X299806Y35807D01*
X299723Y35867D01*
X299704Y35873D01*
X299687Y35883D01*
X299586Y35909D01*
X299488Y35939D01*
X299468Y35939D01*
X299448Y35944D01*
X299345Y35935D01*
X299242Y35933D01*
X299223Y35926D01*
X299203Y35924D01*
X299108Y35884D01*
X299011Y35848D01*
X298995Y35836D01*
X298977Y35828D01*
X298846Y35723D01*
X298682Y35559D01*
X291106Y35559D01*
X285749Y40916D01*
X285749Y48492D01*
X291106Y53849D01*
X298682Y53849D01*
X304039Y48492D01*
X304039Y40916D01*
X303875Y40752D01*
X303863Y40736D01*
X303848Y40724D01*
X303791Y40636D01*
X303731Y40552D01*
X303725Y40533D01*
X303715Y40517D01*
X303689Y40416D01*
X303659Y40317D01*
X303659Y40297D01*
X303654Y40278D01*
X303663Y40175D01*
X303665Y40071D01*
X303672Y40053D01*
X303674Y40033D01*
X303714Y39938D01*
X303750Y39840D01*
X303762Y39825D01*
X303770Y39807D01*
X303875Y39676D01*
X323769Y19782D01*
X323843Y19729D01*
X323912Y19669D01*
X323942Y19657D01*
X323968Y19638D01*
X324055Y19611D01*
X324140Y19577D01*
X324181Y19573D01*
X324203Y19566D01*
X324236Y19567D01*
X324307Y19559D01*
X343028Y19559D01*
X343098Y19570D01*
X343170Y19572D01*
X343219Y19590D01*
X343270Y19598D01*
X343334Y19632D01*
X343401Y19657D01*
X343442Y19689D01*
X343488Y19714D01*
X343537Y19766D01*
X343593Y19810D01*
X343621Y19854D01*
X343657Y19892D01*
X343687Y19957D01*
X343726Y20017D01*
X343739Y20068D01*
X343761Y20115D01*
X343769Y20186D01*
X343786Y20256D01*
X343782Y20308D01*
X343788Y20359D01*
X343773Y20430D01*
X343767Y20501D01*
X343747Y20549D01*
X343736Y20600D01*
X343699Y20661D01*
X343671Y20727D01*
X343626Y20783D01*
X343609Y20811D01*
X343592Y20826D01*
X343566Y20858D01*
X342867Y21557D01*
X341629Y24545D01*
X341629Y40987D01*
X342867Y43975D01*
X345153Y46261D01*
X348141Y47499D01*
X351375Y47499D01*
X354363Y46261D01*
X356649Y43975D01*
X357887Y40987D01*
X357887Y24545D01*
X356649Y21557D01*
X355950Y20858D01*
X355908Y20800D01*
X355859Y20748D01*
X355837Y20701D01*
X355806Y20659D01*
X355785Y20590D01*
X355755Y20525D01*
X355749Y20473D01*
X355734Y20423D01*
X355736Y20352D01*
X355728Y20281D01*
X355739Y20230D01*
X355740Y20178D01*
X355765Y20110D01*
X355780Y20040D01*
X355807Y19995D01*
X355825Y19947D01*
X355870Y19891D01*
X355907Y19829D01*
X355946Y19795D01*
X355979Y19755D01*
X356039Y19716D01*
X356093Y19669D01*
X356142Y19650D01*
X356186Y19622D01*
X356255Y19604D01*
X356322Y19577D01*
X356393Y19569D01*
X356424Y19561D01*
X356447Y19563D01*
X356488Y19559D01*
X368428Y19559D01*
X368498Y19570D01*
X368570Y19572D01*
X368619Y19590D01*
X368670Y19598D01*
X368734Y19632D01*
X368801Y19657D01*
X368842Y19689D01*
X368888Y19714D01*
X368937Y19766D01*
X368993Y19810D01*
X369021Y19854D01*
X369057Y19892D01*
X369087Y19957D01*
X369126Y20017D01*
X369139Y20068D01*
X369161Y20115D01*
X369169Y20186D01*
X369186Y20256D01*
X369182Y20308D01*
X369188Y20359D01*
X369173Y20430D01*
X369167Y20501D01*
X369147Y20549D01*
X369136Y20600D01*
X369099Y20661D01*
X369071Y20727D01*
X369026Y20783D01*
X369009Y20811D01*
X368992Y20826D01*
X368966Y20858D01*
X368267Y21557D01*
X367029Y24545D01*
X367029Y40987D01*
X368267Y43975D01*
X370553Y46261D01*
X373541Y47499D01*
X376775Y47499D01*
X379763Y46261D01*
X382049Y43975D01*
X383287Y40987D01*
X383287Y24545D01*
X382049Y21557D01*
X381350Y20858D01*
X381308Y20800D01*
X381259Y20748D01*
X381237Y20701D01*
X381206Y20659D01*
X381185Y20590D01*
X381155Y20525D01*
X381149Y20473D01*
X381134Y20423D01*
X381136Y20352D01*
X381128Y20281D01*
X381139Y20230D01*
X381140Y20178D01*
X381165Y20110D01*
X381180Y20040D01*
X381207Y19995D01*
X381225Y19947D01*
X381270Y19891D01*
X381307Y19829D01*
X381346Y19795D01*
X381379Y19755D01*
X381439Y19716D01*
X381493Y19669D01*
X381542Y19650D01*
X381586Y19622D01*
X381655Y19604D01*
X381722Y19577D01*
X381793Y19569D01*
X381824Y19561D01*
X381847Y19563D01*
X381888Y19559D01*
X392548Y19559D01*
X392665Y19578D01*
X392785Y19597D01*
X392787Y19598D01*
X392790Y19598D01*
X392895Y19654D01*
X393003Y19710D01*
X393005Y19712D01*
X393008Y19714D01*
X393090Y19800D01*
X393174Y19887D01*
X393175Y19890D01*
X393177Y19892D01*
X393227Y20000D01*
X393279Y20109D01*
X393280Y20112D01*
X393281Y20115D01*
X393294Y20233D01*
X393308Y20353D01*
X393308Y20356D01*
X393308Y20359D01*
X393283Y20476D01*
X393258Y20594D01*
X393256Y20597D01*
X393256Y20600D01*
X393250Y20609D01*
X393181Y20743D01*
X392454Y21830D01*
X391765Y23495D01*
X391413Y25261D01*
X391413Y31243D01*
X399796Y31243D01*
X399816Y31246D01*
X399835Y31244D01*
X399937Y31266D01*
X400039Y31283D01*
X400056Y31292D01*
X400076Y31296D01*
X400165Y31349D01*
X400256Y31398D01*
X400270Y31412D01*
X400287Y31422D01*
X400354Y31501D01*
X400425Y31576D01*
X400434Y31594D01*
X400447Y31609D01*
X400485Y31705D01*
X400529Y31799D01*
X400531Y31819D01*
X400539Y31837D01*
X400557Y32004D01*
X400557Y32767D01*
X400559Y32767D01*
X400559Y32004D01*
X400562Y31984D01*
X400560Y31965D01*
X400582Y31863D01*
X400599Y31761D01*
X400608Y31744D01*
X400612Y31724D01*
X400665Y31635D01*
X400714Y31544D01*
X400728Y31530D01*
X400738Y31513D01*
X400817Y31446D01*
X400892Y31375D01*
X400910Y31366D01*
X400925Y31353D01*
X401021Y31314D01*
X401115Y31271D01*
X401135Y31269D01*
X401153Y31261D01*
X401320Y31243D01*
X409703Y31243D01*
X409703Y27806D01*
X409714Y27735D01*
X409716Y27664D01*
X409734Y27615D01*
X409742Y27563D01*
X409776Y27500D01*
X409801Y27433D01*
X409833Y27392D01*
X409858Y27346D01*
X409910Y27297D01*
X409954Y27241D01*
X409998Y27212D01*
X410036Y27177D01*
X410101Y27146D01*
X410161Y27108D01*
X410212Y27095D01*
X410259Y27073D01*
X410330Y27065D01*
X410400Y27048D01*
X410452Y27052D01*
X410503Y27046D01*
X410574Y27061D01*
X410645Y27067D01*
X410693Y27087D01*
X410744Y27098D01*
X410805Y27135D01*
X410871Y27163D01*
X410927Y27208D01*
X410955Y27224D01*
X410970Y27242D01*
X411002Y27268D01*
X414469Y30735D01*
X668075Y30735D01*
X668165Y30749D01*
X668256Y30757D01*
X668285Y30769D01*
X668317Y30774D01*
X668398Y30817D01*
X668482Y30853D01*
X668514Y30879D01*
X668535Y30890D01*
X668557Y30913D01*
X668613Y30958D01*
X670902Y33247D01*
X675298Y33247D01*
X678407Y30138D01*
X678407Y25742D01*
X675298Y22633D01*
X670902Y22633D01*
X668613Y24922D01*
X668539Y24975D01*
X668469Y25035D01*
X668439Y25047D01*
X668413Y25066D01*
X668326Y25093D01*
X668241Y25127D01*
X668200Y25131D01*
X668178Y25138D01*
X668146Y25137D01*
X668075Y25145D01*
X417100Y25145D01*
X417010Y25131D01*
X416919Y25123D01*
X416889Y25111D01*
X416857Y25106D01*
X416776Y25063D01*
X416692Y25027D01*
X416660Y25001D01*
X416640Y24990D01*
X416617Y24967D01*
X416561Y24922D01*
X407930Y16291D01*
X407889Y16233D01*
X407839Y16181D01*
X407817Y16134D01*
X407787Y16092D01*
X407766Y16023D01*
X407736Y15958D01*
X407730Y15906D01*
X407715Y15856D01*
X407716Y15785D01*
X407708Y15714D01*
X407720Y15663D01*
X407721Y15611D01*
X407746Y15543D01*
X407761Y15473D01*
X407787Y15428D01*
X407805Y15380D01*
X407850Y15324D01*
X407887Y15262D01*
X407926Y15228D01*
X407959Y15188D01*
X408019Y15149D01*
X408074Y15102D01*
X408122Y15083D01*
X408166Y15055D01*
X408235Y15037D01*
X408302Y15010D01*
X408373Y15002D01*
X408404Y14994D01*
X408428Y14996D01*
X408469Y14992D01*
X710184Y14992D01*
X710204Y14995D01*
X710223Y14993D01*
X710325Y15015D01*
X710427Y15031D01*
X710444Y15041D01*
X710464Y15045D01*
X710553Y15098D01*
X710644Y15147D01*
X710658Y15161D01*
X710675Y15171D01*
X710742Y15250D01*
X710814Y15325D01*
X710822Y15343D01*
X710835Y15358D01*
X710874Y15454D01*
X710917Y15548D01*
X710919Y15568D01*
X710927Y15586D01*
X710945Y15753D01*
X710945Y17835D01*
X710931Y17925D01*
X710923Y18016D01*
X710911Y18045D01*
X710906Y18077D01*
X710863Y18158D01*
X710827Y18242D01*
X710801Y18274D01*
X710790Y18295D01*
X710767Y18317D01*
X710722Y18373D01*
X708433Y20662D01*
X708433Y25058D01*
X711542Y28167D01*
X715938Y28167D01*
X719047Y25058D01*
X719047Y20662D01*
X716758Y18373D01*
X716705Y18299D01*
X716645Y18229D01*
X716633Y18199D01*
X716614Y18173D01*
X716587Y18086D01*
X716553Y18001D01*
X716549Y17960D01*
X716542Y17938D01*
X716543Y17906D01*
X716535Y17835D01*
X716535Y11689D01*
X716538Y11669D01*
X716536Y11650D01*
X716558Y11548D01*
X716574Y11446D01*
X716584Y11429D01*
X716588Y11409D01*
X716641Y11320D01*
X716690Y11229D01*
X716704Y11215D01*
X716714Y11198D01*
X716793Y11131D01*
X716868Y11059D01*
X716886Y11051D01*
X716901Y11038D01*
X716997Y10999D01*
X717091Y10956D01*
X717111Y10954D01*
X717129Y10946D01*
X717296Y10928D01*
X736914Y10928D01*
X736985Y10939D01*
X737057Y10941D01*
X737106Y10959D01*
X737157Y10967D01*
X737220Y11001D01*
X737288Y11026D01*
X737328Y11058D01*
X737375Y11083D01*
X737424Y11135D01*
X737480Y11179D01*
X737508Y11223D01*
X737544Y11261D01*
X737574Y11326D01*
X737613Y11386D01*
X737626Y11437D01*
X737648Y11484D01*
X737655Y11555D01*
X737673Y11625D01*
X737669Y11677D01*
X737675Y11728D01*
X737659Y11799D01*
X737654Y11870D01*
X737633Y11918D01*
X737622Y11969D01*
X737586Y12030D01*
X737557Y12096D01*
X737513Y12152D01*
X737496Y12180D01*
X737478Y12195D01*
X737453Y12227D01*
X734000Y15679D01*
X728951Y25590D01*
X727211Y36576D01*
X728951Y47562D01*
X734000Y57473D01*
X741865Y65338D01*
X751776Y70387D01*
X762762Y72127D01*
X773748Y70387D01*
X783659Y65338D01*
X790877Y58119D01*
X790937Y58076D01*
X790990Y58026D01*
X791036Y58005D01*
X791077Y57976D01*
X791147Y57954D01*
X791214Y57923D01*
X791264Y57918D01*
X791312Y57903D01*
X791385Y57905D01*
X791458Y57897D01*
X791507Y57908D01*
X791558Y57910D01*
X791627Y57935D01*
X791699Y57951D01*
X791741Y57977D01*
X791789Y57994D01*
X791846Y58040D01*
X791909Y58078D01*
X791941Y58116D01*
X791981Y58148D01*
X792020Y58210D01*
X792068Y58266D01*
X792086Y58313D01*
X792114Y58355D01*
X792132Y58426D01*
X792159Y58495D01*
X792166Y58563D01*
X792174Y58593D01*
X792172Y58618D01*
X792176Y58661D01*
X791837Y125471D01*
X791837Y125472D01*
X791837Y125473D01*
X789582Y441166D01*
X789571Y441234D01*
X789569Y441303D01*
X789550Y441354D01*
X789541Y441408D01*
X789508Y441469D01*
X789484Y441534D01*
X789450Y441577D01*
X789424Y441625D01*
X789374Y441672D01*
X789331Y441726D01*
X789285Y441756D01*
X789245Y441793D01*
X789182Y441822D01*
X789124Y441859D01*
X789071Y441872D01*
X789021Y441895D01*
X788952Y441902D01*
X788885Y441919D01*
X788831Y441915D01*
X788776Y441920D01*
X788709Y441905D01*
X788640Y441900D01*
X788590Y441878D01*
X788536Y441866D01*
X788477Y441830D01*
X788414Y441804D01*
X788354Y441756D01*
X788326Y441739D01*
X788312Y441722D01*
X788283Y441699D01*
X783913Y437328D01*
X774002Y432279D01*
X763016Y430539D01*
X752030Y432279D01*
X742119Y437328D01*
X734254Y445193D01*
X729205Y455104D01*
X727465Y466090D01*
X729205Y477076D01*
X734254Y486986D01*
X734632Y487364D01*
X734674Y487422D01*
X734722Y487473D01*
X734745Y487521D01*
X734776Y487564D01*
X734797Y487631D01*
X734827Y487695D01*
X734833Y487748D01*
X734848Y487799D01*
X734847Y487870D01*
X734855Y487940D01*
X734843Y487992D01*
X734842Y488045D01*
X734818Y488111D01*
X734803Y488180D01*
X734776Y488226D01*
X734758Y488276D01*
X734714Y488331D01*
X734678Y488392D01*
X734637Y488427D01*
X734604Y488468D01*
X734545Y488506D01*
X734491Y488552D01*
X734442Y488572D01*
X734397Y488601D01*
X734329Y488618D01*
X734263Y488645D01*
X734190Y488653D01*
X734158Y488661D01*
X734136Y488660D01*
X734097Y488664D01*
X290167Y490214D01*
X290166Y490214D01*
X290164Y490214D01*
X63186Y490214D01*
X63115Y490203D01*
X63043Y490201D01*
X62994Y490183D01*
X62943Y490175D01*
X62880Y490141D01*
X62812Y490116D01*
X62771Y490084D01*
X62725Y490059D01*
X62676Y490008D01*
X62620Y489963D01*
X62592Y489919D01*
X62556Y489881D01*
X62526Y489816D01*
X62487Y489756D01*
X62474Y489705D01*
X62452Y489658D01*
X62445Y489587D01*
X62427Y489517D01*
X62431Y489465D01*
X62425Y489414D01*
X62441Y489343D01*
X62446Y489272D01*
X62467Y489224D01*
X62478Y489173D01*
X62514Y489112D01*
X62543Y489046D01*
X62587Y488990D01*
X62604Y488962D01*
X62622Y488947D01*
X62647Y488915D01*
X66354Y485208D01*
X71403Y475298D01*
X73143Y464312D01*
X71403Y453326D01*
X66354Y443415D01*
X58489Y435550D01*
X48578Y430501D01*
X37592Y428761D01*
X26606Y430501D01*
X16695Y435550D01*
X11465Y440781D01*
X11407Y440823D01*
X11355Y440872D01*
X11308Y440894D01*
X11266Y440924D01*
X11197Y440945D01*
X11132Y440976D01*
X11080Y440981D01*
X11030Y440997D01*
X10959Y440995D01*
X10888Y441003D01*
X10837Y440992D01*
X10785Y440990D01*
X10717Y440966D01*
X10647Y440950D01*
X10602Y440924D01*
X10554Y440906D01*
X10498Y440861D01*
X10436Y440824D01*
X10402Y440785D01*
X10362Y440752D01*
X10323Y440692D01*
X10276Y440637D01*
X10257Y440589D01*
X10229Y440545D01*
X10211Y440476D01*
X10184Y440409D01*
X10176Y440338D01*
X10168Y440307D01*
X10170Y440283D01*
X10166Y440242D01*
X10166Y61154D01*
X10168Y61141D01*
X10167Y61131D01*
X10177Y61082D01*
X10179Y61011D01*
X10197Y60962D01*
X10205Y60911D01*
X10239Y60848D01*
X10264Y60780D01*
X10296Y60739D01*
X10321Y60693D01*
X10372Y60644D01*
X10417Y60588D01*
X10461Y60560D01*
X10499Y60524D01*
X10564Y60494D01*
X10624Y60455D01*
X10675Y60442D01*
X10722Y60420D01*
X10793Y60413D01*
X10863Y60395D01*
X10915Y60399D01*
X10966Y60393D01*
X11037Y60409D01*
X11108Y60414D01*
X11156Y60435D01*
X11207Y60446D01*
X11268Y60482D01*
X11334Y60511D01*
X11390Y60555D01*
X11418Y60572D01*
X11433Y60590D01*
X11465Y60615D01*
X15426Y64576D01*
X25336Y69625D01*
X36322Y71365D01*
X47308Y69625D01*
X57219Y64576D01*
X65084Y56711D01*
X70133Y46800D01*
X71873Y35814D01*
X70133Y24828D01*
X65084Y14917D01*
X62393Y12227D01*
X62351Y12169D01*
X62302Y12117D01*
X62280Y12070D01*
X62250Y12028D01*
X62229Y11959D01*
X62198Y11894D01*
X62193Y11842D01*
X62177Y11792D01*
X62179Y11721D01*
X62171Y11650D01*
X62182Y11599D01*
X62184Y11547D01*
X62208Y11479D01*
X62224Y11409D01*
X62250Y11364D01*
X62268Y11316D01*
X62313Y11260D01*
X62350Y11198D01*
X62389Y11164D01*
X62422Y11124D01*
X62482Y11085D01*
X62537Y11038D01*
X62585Y11019D01*
X62629Y10991D01*
X62698Y10973D01*
X62765Y10946D01*
X62836Y10938D01*
X62867Y10930D01*
X62891Y10932D01*
X62932Y10928D01*
X210863Y10928D01*
X210934Y10939D01*
G37*
%LPC*%
G36*
X298362Y166573D02*
X298362Y166573D01*
X296073Y168862D01*
X295999Y168915D01*
X295929Y168975D01*
X295899Y168987D01*
X295873Y169006D01*
X295786Y169033D01*
X295701Y169067D01*
X295660Y169071D01*
X295638Y169078D01*
X295606Y169077D01*
X295534Y169085D01*
X268922Y169085D01*
X214965Y223042D01*
X214891Y223095D01*
X214822Y223155D01*
X214792Y223167D01*
X214766Y223186D01*
X214679Y223213D01*
X214594Y223247D01*
X214553Y223251D01*
X214531Y223258D01*
X214498Y223257D01*
X214427Y223265D01*
X156322Y223265D01*
X154685Y224902D01*
X154685Y260604D01*
X154682Y260624D01*
X154684Y260643D01*
X154662Y260745D01*
X154646Y260847D01*
X154636Y260864D01*
X154632Y260884D01*
X154579Y260973D01*
X154530Y261064D01*
X154516Y261078D01*
X154506Y261095D01*
X154427Y261162D01*
X154352Y261234D01*
X154334Y261242D01*
X154319Y261255D01*
X154223Y261294D01*
X154129Y261337D01*
X154109Y261339D01*
X154091Y261347D01*
X153924Y261365D01*
X141754Y261365D01*
X141639Y261346D01*
X141523Y261329D01*
X141517Y261327D01*
X141511Y261326D01*
X141408Y261271D01*
X141303Y261218D01*
X141299Y261213D01*
X141293Y261210D01*
X141214Y261126D01*
X141131Y261042D01*
X141127Y261036D01*
X141124Y261032D01*
X141116Y261015D01*
X141050Y260895D01*
X140495Y259555D01*
X138209Y257269D01*
X135221Y256031D01*
X118779Y256031D01*
X115791Y257269D01*
X113505Y259555D01*
X112267Y262543D01*
X112267Y265777D01*
X113505Y268765D01*
X115791Y271051D01*
X118779Y272289D01*
X135221Y272289D01*
X138209Y271051D01*
X140495Y268765D01*
X141050Y267425D01*
X141112Y267325D01*
X141172Y267225D01*
X141177Y267221D01*
X141180Y267216D01*
X141270Y267141D01*
X141359Y267065D01*
X141364Y267063D01*
X141369Y267059D01*
X141478Y267017D01*
X141587Y266973D01*
X141594Y266972D01*
X141599Y266971D01*
X141617Y266970D01*
X141754Y266955D01*
X158638Y266955D01*
X160275Y265318D01*
X160275Y229616D01*
X160278Y229596D01*
X160276Y229577D01*
X160298Y229475D01*
X160314Y229373D01*
X160324Y229356D01*
X160328Y229336D01*
X160381Y229247D01*
X160430Y229156D01*
X160444Y229142D01*
X160454Y229125D01*
X160533Y229058D01*
X160608Y228986D01*
X160626Y228978D01*
X160641Y228965D01*
X160737Y228926D01*
X160831Y228883D01*
X160851Y228881D01*
X160869Y228873D01*
X161036Y228855D01*
X214935Y228855D01*
X215006Y228866D01*
X215078Y228868D01*
X215127Y228886D01*
X215178Y228894D01*
X215241Y228928D01*
X215309Y228953D01*
X215349Y228985D01*
X215395Y229010D01*
X215445Y229061D01*
X215501Y229106D01*
X215529Y229150D01*
X215565Y229188D01*
X215595Y229253D01*
X215634Y229313D01*
X215646Y229364D01*
X215668Y229411D01*
X215676Y229482D01*
X215694Y229552D01*
X215690Y229604D01*
X215695Y229655D01*
X215680Y229726D01*
X215675Y229797D01*
X215654Y229845D01*
X215643Y229896D01*
X215606Y229957D01*
X215578Y230023D01*
X215533Y230079D01*
X215517Y230107D01*
X215499Y230122D01*
X215473Y230154D01*
X214309Y231319D01*
X214215Y231386D01*
X214120Y231457D01*
X214114Y231459D01*
X214109Y231462D01*
X213998Y231496D01*
X213886Y231533D01*
X213880Y231533D01*
X213874Y231535D01*
X213757Y231532D01*
X213640Y231531D01*
X213633Y231528D01*
X213628Y231528D01*
X213611Y231522D01*
X213479Y231484D01*
X211421Y230631D01*
X194979Y230631D01*
X191991Y231869D01*
X189705Y234155D01*
X188467Y237143D01*
X188467Y240377D01*
X189705Y243365D01*
X191991Y245651D01*
X194979Y246889D01*
X211421Y246889D01*
X214409Y245651D01*
X216695Y243365D01*
X217933Y240377D01*
X217933Y237143D01*
X217675Y236522D01*
X217666Y236483D01*
X217657Y236463D01*
X217653Y236425D01*
X217649Y236408D01*
X217620Y236295D01*
X217621Y236288D01*
X217619Y236282D01*
X217630Y236166D01*
X217639Y236049D01*
X217642Y236044D01*
X217642Y236037D01*
X217690Y235930D01*
X217736Y235823D01*
X217740Y235817D01*
X217742Y235813D01*
X217755Y235799D01*
X217840Y235692D01*
X263825Y189708D01*
X263899Y189655D01*
X263968Y189595D01*
X263998Y189583D01*
X264024Y189564D01*
X264111Y189537D01*
X264196Y189503D01*
X264237Y189499D01*
X264259Y189492D01*
X264292Y189493D01*
X264363Y189485D01*
X303585Y189485D01*
X303675Y189499D01*
X303766Y189507D01*
X303795Y189519D01*
X303827Y189524D01*
X303908Y189567D01*
X303992Y189603D01*
X304024Y189629D01*
X304045Y189640D01*
X304067Y189663D01*
X304123Y189708D01*
X306412Y191997D01*
X310808Y191997D01*
X313917Y188888D01*
X313917Y184492D01*
X310808Y181383D01*
X306412Y181383D01*
X304123Y183672D01*
X304049Y183725D01*
X303979Y183785D01*
X303949Y183797D01*
X303923Y183816D01*
X303836Y183843D01*
X303751Y183877D01*
X303710Y183881D01*
X303688Y183888D01*
X303656Y183887D01*
X303585Y183895D01*
X263855Y183895D01*
X263784Y183884D01*
X263712Y183882D01*
X263663Y183864D01*
X263612Y183856D01*
X263549Y183822D01*
X263481Y183797D01*
X263441Y183765D01*
X263395Y183740D01*
X263345Y183688D01*
X263289Y183644D01*
X263261Y183600D01*
X263225Y183562D01*
X263195Y183497D01*
X263156Y183437D01*
X263144Y183386D01*
X263122Y183339D01*
X263114Y183268D01*
X263096Y183198D01*
X263100Y183146D01*
X263095Y183095D01*
X263110Y183024D01*
X263115Y182953D01*
X263136Y182905D01*
X263147Y182854D01*
X263184Y182793D01*
X263212Y182727D01*
X263257Y182671D01*
X263273Y182643D01*
X263291Y182628D01*
X263317Y182596D01*
X271015Y174898D01*
X271089Y174845D01*
X271158Y174785D01*
X271188Y174773D01*
X271214Y174754D01*
X271301Y174727D01*
X271386Y174693D01*
X271427Y174689D01*
X271449Y174682D01*
X271482Y174683D01*
X271553Y174675D01*
X295534Y174675D01*
X295625Y174690D01*
X295715Y174697D01*
X295745Y174709D01*
X295777Y174715D01*
X295858Y174757D01*
X295942Y174793D01*
X295974Y174819D01*
X295995Y174830D01*
X296017Y174853D01*
X296073Y174898D01*
X298362Y177187D01*
X302758Y177187D01*
X305867Y174078D01*
X305867Y169682D01*
X302758Y166573D01*
X298362Y166573D01*
G37*
%LPD*%
%LPC*%
G36*
X118779Y78231D02*
X118779Y78231D01*
X115791Y79469D01*
X113505Y81755D01*
X112267Y84743D01*
X112267Y87977D01*
X113505Y90965D01*
X114331Y91791D01*
X114373Y91849D01*
X114422Y91901D01*
X114444Y91948D01*
X114475Y91990D01*
X114496Y92059D01*
X114526Y92124D01*
X114532Y92176D01*
X114547Y92226D01*
X114545Y92297D01*
X114553Y92368D01*
X114542Y92419D01*
X114541Y92471D01*
X114516Y92539D01*
X114501Y92609D01*
X114474Y92654D01*
X114456Y92702D01*
X114411Y92758D01*
X114374Y92820D01*
X114335Y92854D01*
X114302Y92894D01*
X114242Y92933D01*
X114188Y92980D01*
X114139Y92999D01*
X114095Y93027D01*
X114026Y93045D01*
X113959Y93072D01*
X113888Y93080D01*
X113857Y93088D01*
X113834Y93086D01*
X113793Y93090D01*
X98370Y93090D01*
X98280Y93076D01*
X98189Y93068D01*
X98160Y93056D01*
X98128Y93051D01*
X98047Y93008D01*
X97963Y92972D01*
X97931Y92946D01*
X97910Y92935D01*
X97888Y92912D01*
X97832Y92867D01*
X97448Y92483D01*
X93052Y92483D01*
X89943Y95592D01*
X89943Y99988D01*
X93052Y103097D01*
X97448Y103097D01*
X97832Y102713D01*
X97906Y102660D01*
X97976Y102600D01*
X98006Y102588D01*
X98032Y102569D01*
X98119Y102542D01*
X98204Y102508D01*
X98245Y102504D01*
X98267Y102497D01*
X98299Y102498D01*
X98370Y102490D01*
X117708Y102490D01*
X117804Y102505D01*
X117901Y102515D01*
X117925Y102525D01*
X117951Y102529D01*
X118037Y102575D01*
X118126Y102615D01*
X118145Y102632D01*
X118168Y102645D01*
X118235Y102715D01*
X118307Y102781D01*
X118319Y102804D01*
X118337Y102823D01*
X118378Y102911D01*
X118425Y102997D01*
X118430Y103022D01*
X118441Y103046D01*
X118452Y103143D01*
X118469Y103239D01*
X118465Y103265D01*
X118468Y103290D01*
X118448Y103386D01*
X118433Y103482D01*
X118422Y103505D01*
X118416Y103531D01*
X118366Y103614D01*
X118322Y103701D01*
X118303Y103720D01*
X118290Y103742D01*
X118216Y103805D01*
X118146Y103873D01*
X118118Y103889D01*
X118103Y103902D01*
X118072Y103914D01*
X117999Y103954D01*
X115791Y104869D01*
X113505Y107155D01*
X112267Y110143D01*
X112267Y113377D01*
X113505Y116365D01*
X115791Y118651D01*
X118779Y119889D01*
X135221Y119889D01*
X138209Y118651D01*
X140495Y116365D01*
X141733Y113377D01*
X141733Y110143D01*
X140495Y107155D01*
X138209Y104869D01*
X136001Y103954D01*
X135918Y103903D01*
X135832Y103857D01*
X135814Y103839D01*
X135792Y103825D01*
X135729Y103749D01*
X135663Y103679D01*
X135652Y103655D01*
X135635Y103635D01*
X135600Y103544D01*
X135559Y103456D01*
X135556Y103430D01*
X135547Y103406D01*
X135543Y103308D01*
X135532Y103212D01*
X135537Y103186D01*
X135536Y103160D01*
X135563Y103066D01*
X135584Y102971D01*
X135597Y102949D01*
X135605Y102924D01*
X135660Y102844D01*
X135710Y102760D01*
X135730Y102743D01*
X135745Y102722D01*
X135823Y102663D01*
X135897Y102600D01*
X135921Y102590D01*
X135942Y102575D01*
X136035Y102545D01*
X136125Y102508D01*
X136158Y102505D01*
X136176Y102499D01*
X136209Y102499D01*
X136292Y102490D01*
X166648Y102490D01*
X166738Y102504D01*
X166829Y102512D01*
X166859Y102524D01*
X166891Y102529D01*
X166971Y102572D01*
X167055Y102608D01*
X167087Y102634D01*
X167108Y102645D01*
X167130Y102668D01*
X167186Y102713D01*
X172877Y108404D01*
X172930Y108478D01*
X172990Y108547D01*
X173002Y108577D01*
X173021Y108603D01*
X173048Y108690D01*
X173082Y108775D01*
X173086Y108816D01*
X173093Y108839D01*
X173092Y108871D01*
X173100Y108942D01*
X173100Y146727D01*
X175853Y149480D01*
X197527Y149480D01*
X201495Y145512D01*
X201569Y145459D01*
X201638Y145399D01*
X201668Y145387D01*
X201694Y145368D01*
X201781Y145341D01*
X201866Y145307D01*
X201907Y145303D01*
X201930Y145296D01*
X201962Y145297D01*
X202033Y145289D01*
X211421Y145289D01*
X214409Y144051D01*
X216695Y141765D01*
X217933Y138777D01*
X217933Y135543D01*
X216695Y132555D01*
X214409Y130269D01*
X211421Y129031D01*
X194979Y129031D01*
X191991Y130269D01*
X189705Y132555D01*
X188467Y135543D01*
X188467Y138777D01*
X188571Y139028D01*
X188582Y139072D01*
X188601Y139114D01*
X188610Y139191D01*
X188627Y139267D01*
X188623Y139313D01*
X188628Y139358D01*
X188612Y139435D01*
X188604Y139512D01*
X188586Y139554D01*
X188576Y139599D01*
X188536Y139666D01*
X188504Y139737D01*
X188473Y139771D01*
X188450Y139810D01*
X188390Y139861D01*
X188338Y139918D01*
X188298Y139940D01*
X188263Y139970D01*
X188190Y139999D01*
X188122Y140036D01*
X188077Y140045D01*
X188035Y140062D01*
X187899Y140077D01*
X187880Y140080D01*
X187875Y140079D01*
X187868Y140080D01*
X183261Y140080D01*
X183241Y140077D01*
X183222Y140079D01*
X183120Y140057D01*
X183018Y140041D01*
X183001Y140031D01*
X182981Y140027D01*
X182892Y139974D01*
X182801Y139925D01*
X182787Y139911D01*
X182770Y139901D01*
X182703Y139822D01*
X182631Y139747D01*
X182623Y139729D01*
X182610Y139714D01*
X182571Y139618D01*
X182528Y139524D01*
X182526Y139504D01*
X182518Y139486D01*
X182500Y139319D01*
X182500Y104733D01*
X170857Y93090D01*
X140207Y93090D01*
X140137Y93079D01*
X140065Y93077D01*
X140016Y93059D01*
X139965Y93051D01*
X139901Y93017D01*
X139834Y92992D01*
X139793Y92960D01*
X139747Y92935D01*
X139698Y92883D01*
X139642Y92839D01*
X139614Y92795D01*
X139578Y92757D01*
X139548Y92692D01*
X139509Y92632D01*
X139496Y92581D01*
X139474Y92534D01*
X139466Y92463D01*
X139449Y92393D01*
X139453Y92341D01*
X139447Y92290D01*
X139462Y92219D01*
X139468Y92148D01*
X139488Y92100D01*
X139499Y92049D01*
X139536Y91988D01*
X139564Y91922D01*
X139609Y91866D01*
X139626Y91838D01*
X139643Y91823D01*
X139669Y91791D01*
X140495Y90965D01*
X141733Y87977D01*
X141733Y84743D01*
X140495Y81755D01*
X138209Y79469D01*
X135221Y78231D01*
X118779Y78231D01*
G37*
%LPD*%
%LPC*%
G36*
X89242Y119153D02*
X89242Y119153D01*
X86133Y122262D01*
X86133Y126658D01*
X89242Y129767D01*
X89785Y129767D01*
X89875Y129781D01*
X89966Y129789D01*
X89996Y129801D01*
X90028Y129806D01*
X90108Y129849D01*
X90192Y129885D01*
X90224Y129911D01*
X90245Y129922D01*
X90267Y129945D01*
X90323Y129990D01*
X111917Y151584D01*
X114644Y154311D01*
X114699Y154388D01*
X114760Y154460D01*
X114771Y154487D01*
X114788Y154510D01*
X114816Y154601D01*
X114850Y154689D01*
X114852Y154718D01*
X114860Y154746D01*
X114858Y154840D01*
X114862Y154935D01*
X114855Y154963D01*
X114854Y154991D01*
X114821Y155080D01*
X114796Y155172D01*
X114779Y155195D01*
X114769Y155222D01*
X114710Y155296D01*
X114657Y155375D01*
X114629Y155398D01*
X114616Y155414D01*
X114597Y155427D01*
X113293Y156730D01*
X112292Y158228D01*
X111603Y159893D01*
X111375Y161037D01*
X126238Y161037D01*
X126258Y161040D01*
X126277Y161038D01*
X126379Y161060D01*
X126481Y161077D01*
X126498Y161086D01*
X126518Y161090D01*
X126607Y161143D01*
X126698Y161192D01*
X126712Y161206D01*
X126729Y161216D01*
X126796Y161295D01*
X126867Y161370D01*
X126876Y161388D01*
X126889Y161403D01*
X126927Y161499D01*
X126971Y161593D01*
X126973Y161613D01*
X126981Y161631D01*
X126999Y161798D01*
X126999Y162561D01*
X127001Y162561D01*
X127001Y161798D01*
X127004Y161778D01*
X127002Y161759D01*
X127024Y161657D01*
X127041Y161555D01*
X127050Y161538D01*
X127054Y161518D01*
X127107Y161429D01*
X127156Y161338D01*
X127170Y161324D01*
X127180Y161307D01*
X127259Y161240D01*
X127334Y161169D01*
X127352Y161160D01*
X127367Y161147D01*
X127463Y161108D01*
X127557Y161065D01*
X127577Y161063D01*
X127595Y161055D01*
X127762Y161037D01*
X142625Y161037D01*
X142397Y159893D01*
X141708Y158228D01*
X140707Y156730D01*
X139836Y155859D01*
X139794Y155801D01*
X139745Y155749D01*
X139723Y155702D01*
X139692Y155660D01*
X139671Y155591D01*
X139641Y155526D01*
X139635Y155474D01*
X139620Y155424D01*
X139622Y155353D01*
X139614Y155282D01*
X139625Y155231D01*
X139626Y155179D01*
X139651Y155111D01*
X139666Y155041D01*
X139693Y154996D01*
X139711Y154948D01*
X139756Y154892D01*
X139792Y154830D01*
X139832Y154796D01*
X139864Y154756D01*
X139925Y154717D01*
X139979Y154670D01*
X140028Y154651D01*
X140071Y154623D01*
X140141Y154605D01*
X140207Y154578D01*
X140279Y154570D01*
X140310Y154562D01*
X140333Y154564D01*
X140374Y154560D01*
X152678Y154560D01*
X152768Y154574D01*
X152859Y154582D01*
X152889Y154594D01*
X152921Y154599D01*
X153001Y154642D01*
X153085Y154678D01*
X153117Y154704D01*
X153138Y154715D01*
X153160Y154738D01*
X153216Y154783D01*
X175417Y176984D01*
X175470Y177058D01*
X175530Y177127D01*
X175542Y177157D01*
X175561Y177183D01*
X175588Y177270D01*
X175622Y177355D01*
X175626Y177396D01*
X175633Y177419D01*
X175632Y177451D01*
X175640Y177522D01*
X175640Y212767D01*
X180933Y218060D01*
X189485Y218060D01*
X189575Y218074D01*
X189666Y218082D01*
X189695Y218094D01*
X189727Y218099D01*
X189808Y218142D01*
X189892Y218178D01*
X189924Y218204D01*
X189945Y218215D01*
X189967Y218238D01*
X190023Y218283D01*
X191991Y220251D01*
X194979Y221489D01*
X211421Y221489D01*
X214409Y220251D01*
X216695Y217965D01*
X217933Y214977D01*
X217933Y211743D01*
X216695Y208755D01*
X214409Y206469D01*
X211421Y205231D01*
X194979Y205231D01*
X191991Y206469D01*
X190023Y208437D01*
X189949Y208490D01*
X189880Y208550D01*
X189849Y208562D01*
X189823Y208581D01*
X189736Y208608D01*
X189651Y208642D01*
X189610Y208646D01*
X189588Y208653D01*
X189556Y208652D01*
X189485Y208660D01*
X185801Y208660D01*
X185781Y208657D01*
X185762Y208659D01*
X185660Y208637D01*
X185558Y208621D01*
X185541Y208611D01*
X185521Y208607D01*
X185432Y208554D01*
X185341Y208505D01*
X185327Y208491D01*
X185310Y208481D01*
X185243Y208402D01*
X185171Y208327D01*
X185163Y208309D01*
X185150Y208294D01*
X185111Y208198D01*
X185068Y208104D01*
X185066Y208084D01*
X185058Y208066D01*
X185040Y207899D01*
X185040Y173313D01*
X156887Y145160D01*
X138937Y145160D01*
X138867Y145149D01*
X138795Y145147D01*
X138746Y145129D01*
X138695Y145121D01*
X138631Y145087D01*
X138564Y145062D01*
X138523Y145030D01*
X138477Y145005D01*
X138428Y144953D01*
X138372Y144909D01*
X138344Y144865D01*
X138308Y144827D01*
X138278Y144762D01*
X138239Y144702D01*
X138226Y144651D01*
X138204Y144604D01*
X138196Y144533D01*
X138179Y144463D01*
X138183Y144411D01*
X138177Y144360D01*
X138192Y144289D01*
X138198Y144218D01*
X138218Y144170D01*
X138229Y144119D01*
X138266Y144058D01*
X138294Y143992D01*
X138339Y143936D01*
X138356Y143908D01*
X138373Y143893D01*
X138399Y143861D01*
X140495Y141765D01*
X141733Y138777D01*
X141733Y135543D01*
X140495Y132555D01*
X138209Y130269D01*
X135221Y129031D01*
X118779Y129031D01*
X115791Y130269D01*
X113505Y132555D01*
X112267Y135543D01*
X112267Y136803D01*
X112256Y136874D01*
X112254Y136945D01*
X112236Y136994D01*
X112228Y137046D01*
X112194Y137109D01*
X112169Y137176D01*
X112137Y137217D01*
X112112Y137263D01*
X112060Y137313D01*
X112016Y137369D01*
X111972Y137397D01*
X111934Y137433D01*
X111869Y137463D01*
X111809Y137502D01*
X111758Y137514D01*
X111711Y137536D01*
X111640Y137544D01*
X111570Y137562D01*
X111518Y137558D01*
X111467Y137563D01*
X111396Y137548D01*
X111325Y137542D01*
X111277Y137522D01*
X111226Y137511D01*
X111165Y137474D01*
X111099Y137446D01*
X111043Y137401D01*
X111015Y137385D01*
X111000Y137367D01*
X110968Y137341D01*
X96970Y123343D01*
X96924Y123279D01*
X96905Y123260D01*
X96901Y123251D01*
X96857Y123200D01*
X96845Y123170D01*
X96826Y123144D01*
X96799Y123057D01*
X96765Y122972D01*
X96761Y122931D01*
X96754Y122908D01*
X96755Y122876D01*
X96747Y122805D01*
X96747Y122262D01*
X93638Y119153D01*
X89242Y119153D01*
G37*
%LPD*%
%LPC*%
G36*
X623428Y289305D02*
X623428Y289305D01*
X602711Y310022D01*
X602637Y310075D01*
X602568Y310135D01*
X602538Y310147D01*
X602512Y310166D01*
X602425Y310193D01*
X602340Y310227D01*
X602299Y310231D01*
X602277Y310238D01*
X602244Y310237D01*
X602173Y310245D01*
X590284Y310245D01*
X589391Y311138D01*
X589391Y326402D01*
X590284Y327295D01*
X605548Y327295D01*
X606441Y326402D01*
X606441Y314513D01*
X606455Y314423D01*
X606463Y314332D01*
X606475Y314302D01*
X606480Y314270D01*
X606523Y314190D01*
X606559Y314106D01*
X606585Y314074D01*
X606596Y314053D01*
X606619Y314031D01*
X606664Y313975D01*
X625521Y295118D01*
X625595Y295065D01*
X625664Y295005D01*
X625694Y294993D01*
X625720Y294974D01*
X625807Y294947D01*
X625892Y294913D01*
X625933Y294909D01*
X625955Y294902D01*
X625988Y294903D01*
X626059Y294895D01*
X706683Y294895D01*
X706753Y294906D01*
X706825Y294908D01*
X706874Y294926D01*
X706925Y294934D01*
X706989Y294968D01*
X707056Y294993D01*
X707097Y295025D01*
X707143Y295050D01*
X707192Y295102D01*
X707248Y295146D01*
X707276Y295190D01*
X707312Y295228D01*
X707342Y295293D01*
X707381Y295353D01*
X707394Y295404D01*
X707416Y295451D01*
X707424Y295522D01*
X707441Y295592D01*
X707437Y295644D01*
X707443Y295695D01*
X707428Y295766D01*
X707422Y295837D01*
X707402Y295885D01*
X707391Y295936D01*
X707354Y295997D01*
X707326Y296063D01*
X707281Y296119D01*
X707264Y296147D01*
X707247Y296162D01*
X707221Y296194D01*
X705893Y297522D01*
X705893Y298704D01*
X705892Y298714D01*
X705892Y298720D01*
X705890Y298728D01*
X705892Y298743D01*
X705870Y298845D01*
X705854Y298947D01*
X705844Y298964D01*
X705840Y298984D01*
X705787Y299073D01*
X705738Y299164D01*
X705724Y299178D01*
X705714Y299195D01*
X705635Y299262D01*
X705560Y299334D01*
X705542Y299342D01*
X705527Y299355D01*
X705431Y299394D01*
X705337Y299437D01*
X705317Y299439D01*
X705299Y299447D01*
X705132Y299465D01*
X641208Y299465D01*
X629176Y311498D01*
X629160Y311509D01*
X629147Y311525D01*
X629060Y311581D01*
X628976Y311641D01*
X628957Y311647D01*
X628940Y311658D01*
X628840Y311683D01*
X628741Y311714D01*
X628721Y311713D01*
X628702Y311718D01*
X628599Y311710D01*
X628495Y311707D01*
X628477Y311700D01*
X628457Y311699D01*
X628362Y311658D01*
X628264Y311623D01*
X628249Y311610D01*
X628230Y311602D01*
X628168Y311553D01*
X625012Y310245D01*
X621620Y310245D01*
X618487Y311543D01*
X616089Y313941D01*
X614791Y317074D01*
X614791Y320466D01*
X616089Y323599D01*
X618487Y325997D01*
X621620Y327295D01*
X625012Y327295D01*
X628145Y325997D01*
X630543Y323599D01*
X631841Y320466D01*
X631841Y317053D01*
X631855Y316963D01*
X631863Y316872D01*
X631875Y316842D01*
X631880Y316810D01*
X631923Y316729D01*
X631959Y316646D01*
X631985Y316613D01*
X631996Y316593D01*
X632019Y316571D01*
X632064Y316515D01*
X643301Y305278D01*
X643375Y305225D01*
X643444Y305165D01*
X643474Y305153D01*
X643500Y305134D01*
X643587Y305107D01*
X643672Y305073D01*
X643713Y305069D01*
X643735Y305062D01*
X643768Y305063D01*
X643839Y305055D01*
X712511Y305055D01*
X712534Y305045D01*
X712575Y305041D01*
X712597Y305034D01*
X712630Y305035D01*
X712701Y305027D01*
X713398Y305027D01*
X716507Y301918D01*
X716507Y297522D01*
X715179Y296194D01*
X715137Y296136D01*
X715088Y296084D01*
X715066Y296037D01*
X715036Y295995D01*
X715014Y295926D01*
X714984Y295861D01*
X714979Y295809D01*
X714963Y295759D01*
X714965Y295688D01*
X714957Y295617D01*
X714968Y295566D01*
X714970Y295514D01*
X714994Y295446D01*
X715009Y295376D01*
X715036Y295331D01*
X715054Y295283D01*
X715099Y295227D01*
X715136Y295165D01*
X715175Y295131D01*
X715208Y295091D01*
X715268Y295052D01*
X715323Y295005D01*
X715371Y294986D01*
X715415Y294958D01*
X715484Y294940D01*
X715551Y294913D01*
X715622Y294905D01*
X715653Y294897D01*
X715676Y294899D01*
X715717Y294895D01*
X725452Y294895D01*
X725472Y294898D01*
X725491Y294896D01*
X725593Y294918D01*
X725695Y294934D01*
X725712Y294944D01*
X725732Y294948D01*
X725821Y295001D01*
X725912Y295050D01*
X725926Y295064D01*
X725943Y295074D01*
X726010Y295153D01*
X726082Y295228D01*
X726090Y295246D01*
X726103Y295261D01*
X726142Y295357D01*
X726185Y295451D01*
X726187Y295471D01*
X726195Y295489D01*
X726213Y295656D01*
X726213Y296838D01*
X729322Y299947D01*
X733718Y299947D01*
X736827Y296838D01*
X736827Y292442D01*
X733718Y289333D01*
X730481Y289333D01*
X730391Y289319D01*
X730300Y289311D01*
X730285Y289305D01*
X623428Y289305D01*
G37*
%LPD*%
%LPC*%
G36*
X343242Y70893D02*
X343242Y70893D01*
X340133Y74002D01*
X340133Y78398D01*
X343242Y81507D01*
X346479Y81507D01*
X346569Y81521D01*
X346660Y81529D01*
X346690Y81541D01*
X346722Y81546D01*
X346802Y81589D01*
X346886Y81625D01*
X346918Y81651D01*
X346939Y81662D01*
X346961Y81685D01*
X347017Y81730D01*
X351902Y86615D01*
X412547Y86615D01*
X412637Y86629D01*
X412728Y86637D01*
X412758Y86649D01*
X412790Y86654D01*
X412870Y86697D01*
X412954Y86733D01*
X412986Y86759D01*
X413007Y86770D01*
X413029Y86793D01*
X413085Y86838D01*
X418622Y92375D01*
X418675Y92449D01*
X418735Y92518D01*
X418747Y92548D01*
X418766Y92574D01*
X418793Y92661D01*
X418827Y92746D01*
X418831Y92787D01*
X418838Y92809D01*
X418837Y92842D01*
X418845Y92913D01*
X418845Y130698D01*
X464370Y176223D01*
X464423Y176297D01*
X464483Y176366D01*
X464495Y176396D01*
X464514Y176422D01*
X464541Y176509D01*
X464575Y176594D01*
X464579Y176635D01*
X464586Y176657D01*
X464585Y176690D01*
X464593Y176761D01*
X464593Y180034D01*
X467702Y183143D01*
X472098Y183143D01*
X475207Y180034D01*
X475207Y175638D01*
X472098Y172529D01*
X468897Y172529D01*
X468807Y172515D01*
X468716Y172507D01*
X468686Y172495D01*
X468654Y172490D01*
X468574Y172447D01*
X468490Y172411D01*
X468458Y172385D01*
X468437Y172374D01*
X468415Y172351D01*
X468359Y172306D01*
X424658Y128605D01*
X424605Y128531D01*
X424545Y128462D01*
X424533Y128432D01*
X424514Y128406D01*
X424487Y128319D01*
X424453Y128234D01*
X424449Y128193D01*
X424442Y128171D01*
X424443Y128138D01*
X424435Y128067D01*
X424435Y90282D01*
X415178Y81025D01*
X354533Y81025D01*
X354443Y81011D01*
X354352Y81003D01*
X354322Y80991D01*
X354290Y80986D01*
X354210Y80943D01*
X354126Y80907D01*
X354094Y80881D01*
X354073Y80870D01*
X354051Y80847D01*
X353995Y80802D01*
X350970Y77777D01*
X350917Y77703D01*
X350857Y77634D01*
X350845Y77604D01*
X350826Y77578D01*
X350799Y77491D01*
X350765Y77406D01*
X350761Y77365D01*
X350754Y77343D01*
X350755Y77310D01*
X350747Y77239D01*
X350747Y74002D01*
X347638Y70893D01*
X343242Y70893D01*
G37*
%LPD*%
%LPC*%
G36*
X93889Y339487D02*
X93889Y339487D01*
X86846Y342404D01*
X81456Y347794D01*
X78539Y354837D01*
X78539Y362459D01*
X81456Y369502D01*
X86846Y374892D01*
X93889Y377809D01*
X101511Y377809D01*
X108554Y374892D01*
X113944Y369502D01*
X116861Y362459D01*
X116861Y354837D01*
X113944Y347794D01*
X108554Y342404D01*
X101511Y339487D01*
X93889Y339487D01*
G37*
%LPD*%
%LPC*%
G36*
X49088Y340487D02*
X49088Y340487D01*
X42413Y343252D01*
X37304Y348361D01*
X34539Y355036D01*
X34539Y362260D01*
X37304Y368935D01*
X42413Y374044D01*
X49088Y376809D01*
X56312Y376809D01*
X62987Y374044D01*
X68096Y368935D01*
X70861Y362260D01*
X70861Y355036D01*
X68096Y348361D01*
X62987Y343252D01*
X56312Y340487D01*
X49088Y340487D01*
G37*
%LPD*%
%LPC*%
G36*
X510882Y233453D02*
X510882Y233453D01*
X507773Y236562D01*
X507773Y239799D01*
X507759Y239889D01*
X507751Y239980D01*
X507739Y240010D01*
X507734Y240042D01*
X507691Y240122D01*
X507655Y240206D01*
X507629Y240238D01*
X507618Y240259D01*
X507595Y240281D01*
X507550Y240337D01*
X474045Y273842D01*
X473971Y273895D01*
X473902Y273955D01*
X473872Y273967D01*
X473846Y273986D01*
X473759Y274013D01*
X473674Y274047D01*
X473633Y274051D01*
X473611Y274058D01*
X473578Y274057D01*
X473507Y274065D01*
X463753Y274065D01*
X463663Y274051D01*
X463572Y274043D01*
X463542Y274031D01*
X463510Y274026D01*
X463430Y273983D01*
X463346Y273947D01*
X463314Y273921D01*
X463293Y273910D01*
X463271Y273887D01*
X463215Y273842D01*
X460898Y271525D01*
X444445Y271525D01*
X444355Y271511D01*
X444264Y271503D01*
X444235Y271491D01*
X444203Y271486D01*
X444122Y271443D01*
X444038Y271407D01*
X444006Y271381D01*
X443985Y271370D01*
X443963Y271347D01*
X443907Y271302D01*
X441618Y269013D01*
X437222Y269013D01*
X434113Y272122D01*
X434113Y276518D01*
X437222Y279627D01*
X441618Y279627D01*
X443907Y277338D01*
X443981Y277285D01*
X444051Y277225D01*
X444081Y277213D01*
X444107Y277194D01*
X444194Y277167D01*
X444279Y277133D01*
X444320Y277129D01*
X444342Y277122D01*
X444374Y277123D01*
X444445Y277115D01*
X458267Y277115D01*
X458357Y277129D01*
X458448Y277137D01*
X458478Y277149D01*
X458510Y277154D01*
X458590Y277197D01*
X458674Y277233D01*
X458706Y277259D01*
X458727Y277270D01*
X458749Y277293D01*
X458805Y277338D01*
X461122Y279655D01*
X476138Y279655D01*
X511503Y244290D01*
X511577Y244237D01*
X511646Y244177D01*
X511676Y244165D01*
X511702Y244146D01*
X511789Y244119D01*
X511874Y244085D01*
X511915Y244081D01*
X511937Y244074D01*
X511970Y244075D01*
X512041Y244067D01*
X515278Y244067D01*
X518387Y240958D01*
X518387Y236562D01*
X515278Y233453D01*
X510882Y233453D01*
G37*
%LPD*%
%LPC*%
G36*
X672420Y310245D02*
X672420Y310245D01*
X669287Y311543D01*
X666889Y313941D01*
X665591Y317074D01*
X665591Y320466D01*
X666889Y323599D01*
X669287Y325997D01*
X672420Y327295D01*
X673547Y327295D01*
X673637Y327309D01*
X673728Y327317D01*
X673758Y327329D01*
X673790Y327334D01*
X673871Y327377D01*
X673954Y327413D01*
X673987Y327439D01*
X674007Y327450D01*
X674029Y327473D01*
X674085Y327518D01*
X680242Y333675D01*
X682102Y335535D01*
X719978Y335535D01*
X724155Y331358D01*
X724155Y322525D01*
X724169Y322435D01*
X724177Y322344D01*
X724189Y322315D01*
X724194Y322283D01*
X724237Y322202D01*
X724273Y322118D01*
X724299Y322086D01*
X724310Y322065D01*
X724333Y322043D01*
X724378Y321987D01*
X726667Y319698D01*
X726667Y315302D01*
X723558Y312193D01*
X719162Y312193D01*
X716053Y315302D01*
X716053Y319698D01*
X718342Y321987D01*
X718395Y322061D01*
X718455Y322131D01*
X718467Y322161D01*
X718486Y322187D01*
X718513Y322274D01*
X718547Y322359D01*
X718551Y322400D01*
X718558Y322422D01*
X718557Y322454D01*
X718565Y322525D01*
X718565Y328727D01*
X718551Y328817D01*
X718543Y328908D01*
X718531Y328938D01*
X718526Y328970D01*
X718483Y329050D01*
X718447Y329134D01*
X718421Y329166D01*
X718410Y329187D01*
X718387Y329209D01*
X718342Y329265D01*
X717885Y329722D01*
X717811Y329775D01*
X717742Y329835D01*
X717712Y329847D01*
X717686Y329866D01*
X717599Y329893D01*
X717514Y329927D01*
X717473Y329931D01*
X717451Y329938D01*
X717418Y329937D01*
X717347Y329945D01*
X684733Y329945D01*
X684643Y329931D01*
X684552Y329923D01*
X684522Y329911D01*
X684490Y329906D01*
X684409Y329863D01*
X684326Y329827D01*
X684293Y329801D01*
X684273Y329790D01*
X684251Y329767D01*
X684195Y329722D01*
X680245Y325773D01*
X680234Y325757D01*
X680218Y325744D01*
X680162Y325657D01*
X680102Y325573D01*
X680096Y325554D01*
X680085Y325537D01*
X680060Y325437D01*
X680029Y325338D01*
X680030Y325318D01*
X680025Y325299D01*
X680033Y325196D01*
X680036Y325092D01*
X680043Y325074D01*
X680044Y325054D01*
X680085Y324959D01*
X680120Y324861D01*
X680133Y324846D01*
X680141Y324827D01*
X680245Y324696D01*
X681343Y323599D01*
X682641Y320466D01*
X682641Y317074D01*
X681343Y313941D01*
X678945Y311543D01*
X675812Y310245D01*
X672420Y310245D01*
G37*
%LPD*%
%LPC*%
G36*
X503262Y98833D02*
X503262Y98833D01*
X500153Y101942D01*
X500153Y106338D01*
X502442Y108627D01*
X502490Y108693D01*
X502497Y108701D01*
X502499Y108705D01*
X502555Y108771D01*
X502567Y108801D01*
X502586Y108827D01*
X502613Y108914D01*
X502647Y108999D01*
X502651Y109040D01*
X502658Y109062D01*
X502657Y109094D01*
X502665Y109165D01*
X502665Y175315D01*
X502651Y175405D01*
X502643Y175496D01*
X502631Y175525D01*
X502626Y175557D01*
X502583Y175638D01*
X502547Y175722D01*
X502521Y175754D01*
X502510Y175775D01*
X502487Y175797D01*
X502442Y175853D01*
X500153Y178142D01*
X500153Y182538D01*
X503262Y185647D01*
X507658Y185647D01*
X510767Y182538D01*
X510767Y178142D01*
X508478Y175853D01*
X508425Y175779D01*
X508365Y175709D01*
X508353Y175679D01*
X508334Y175653D01*
X508307Y175566D01*
X508273Y175481D01*
X508269Y175440D01*
X508262Y175418D01*
X508263Y175386D01*
X508255Y175315D01*
X508255Y109165D01*
X508269Y109075D01*
X508277Y108984D01*
X508289Y108955D01*
X508294Y108923D01*
X508337Y108842D01*
X508373Y108758D01*
X508399Y108726D01*
X508410Y108705D01*
X508433Y108683D01*
X508478Y108627D01*
X510767Y106338D01*
X510767Y101942D01*
X507658Y98833D01*
X503262Y98833D01*
G37*
%LPD*%
%LPC*%
G36*
X194979Y78231D02*
X194979Y78231D01*
X191991Y79469D01*
X189705Y81755D01*
X188467Y84743D01*
X188467Y87977D01*
X189705Y90965D01*
X191991Y93251D01*
X194979Y94489D01*
X211421Y94489D01*
X214409Y93251D01*
X216695Y90965D01*
X217933Y87977D01*
X217933Y84743D01*
X216695Y81755D01*
X214409Y79469D01*
X211421Y78231D01*
X194979Y78231D01*
G37*
%LPD*%
%LPC*%
G36*
X118779Y230631D02*
X118779Y230631D01*
X115791Y231869D01*
X113505Y234155D01*
X112267Y237143D01*
X112267Y240377D01*
X113505Y243365D01*
X115791Y245651D01*
X118779Y246889D01*
X135221Y246889D01*
X138209Y245651D01*
X140495Y243365D01*
X141733Y240377D01*
X141733Y237143D01*
X140495Y234155D01*
X138209Y231869D01*
X135221Y230631D01*
X118779Y230631D01*
G37*
%LPD*%
%LPC*%
G36*
X118779Y205231D02*
X118779Y205231D01*
X115791Y206469D01*
X113505Y208755D01*
X112267Y211743D01*
X112267Y214977D01*
X113505Y217965D01*
X115791Y220251D01*
X118779Y221489D01*
X135221Y221489D01*
X138209Y220251D01*
X140495Y217965D01*
X141733Y214977D01*
X141733Y211743D01*
X140495Y208755D01*
X138209Y206469D01*
X135221Y205231D01*
X118779Y205231D01*
G37*
%LPD*%
%LPC*%
G36*
X194979Y103631D02*
X194979Y103631D01*
X191991Y104869D01*
X189705Y107155D01*
X188467Y110143D01*
X188467Y113377D01*
X189705Y116365D01*
X191991Y118651D01*
X194979Y119889D01*
X211421Y119889D01*
X214409Y118651D01*
X216695Y116365D01*
X217933Y113377D01*
X217933Y110143D01*
X216695Y107155D01*
X214409Y104869D01*
X211421Y103631D01*
X194979Y103631D01*
G37*
%LPD*%
%LPC*%
G36*
X194979Y256031D02*
X194979Y256031D01*
X191991Y257269D01*
X189705Y259555D01*
X188467Y262543D01*
X188467Y265777D01*
X189705Y268765D01*
X191991Y271051D01*
X194979Y272289D01*
X211421Y272289D01*
X214409Y271051D01*
X216695Y268765D01*
X217933Y265777D01*
X217933Y262543D01*
X216695Y259555D01*
X214409Y257269D01*
X211421Y256031D01*
X194979Y256031D01*
G37*
%LPD*%
%LPC*%
G36*
X635956Y205635D02*
X635956Y205635D01*
X633028Y206848D01*
X630788Y209088D01*
X629575Y212016D01*
X629575Y228064D01*
X630788Y230992D01*
X633028Y233232D01*
X635956Y234445D01*
X639124Y234445D01*
X642052Y233232D01*
X644292Y230992D01*
X645505Y228064D01*
X645505Y212016D01*
X644292Y209088D01*
X642052Y206848D01*
X639124Y205635D01*
X635956Y205635D01*
G37*
%LPD*%
%LPC*%
G36*
X762956Y205635D02*
X762956Y205635D01*
X760028Y206848D01*
X757788Y209088D01*
X756575Y212016D01*
X756575Y228064D01*
X757788Y230992D01*
X760028Y233232D01*
X762956Y234445D01*
X766124Y234445D01*
X769052Y233232D01*
X771292Y230992D01*
X772505Y228064D01*
X772505Y212016D01*
X771292Y209088D01*
X769052Y206848D01*
X766124Y205635D01*
X762956Y205635D01*
G37*
%LPD*%
%LPC*%
G36*
X686756Y205635D02*
X686756Y205635D01*
X683828Y206848D01*
X681588Y209088D01*
X680375Y212016D01*
X680375Y228064D01*
X681588Y230992D01*
X683828Y233232D01*
X686756Y234445D01*
X689924Y234445D01*
X692852Y233232D01*
X695092Y230992D01*
X696305Y228064D01*
X696305Y212016D01*
X695092Y209088D01*
X692852Y206848D01*
X689924Y205635D01*
X686756Y205635D01*
G37*
%LPD*%
%LPC*%
G36*
X737556Y205635D02*
X737556Y205635D01*
X734628Y206848D01*
X732388Y209088D01*
X731175Y212016D01*
X731175Y228064D01*
X732388Y230992D01*
X734628Y233232D01*
X737556Y234445D01*
X740724Y234445D01*
X743652Y233232D01*
X745892Y230992D01*
X747105Y228064D01*
X747105Y212016D01*
X745892Y209088D01*
X743652Y206848D01*
X740724Y205635D01*
X737556Y205635D01*
G37*
%LPD*%
%LPC*%
G36*
X585156Y205635D02*
X585156Y205635D01*
X582228Y206848D01*
X579988Y209088D01*
X578775Y212016D01*
X578775Y228064D01*
X579988Y230992D01*
X582228Y233232D01*
X585156Y234445D01*
X588324Y234445D01*
X591252Y233232D01*
X593492Y230992D01*
X594705Y228064D01*
X594705Y212016D01*
X593492Y209088D01*
X591252Y206848D01*
X588324Y205635D01*
X585156Y205635D01*
G37*
%LPD*%
%LPC*%
G36*
X712156Y205635D02*
X712156Y205635D01*
X709228Y206848D01*
X706988Y209088D01*
X705775Y212016D01*
X705775Y228064D01*
X706988Y230992D01*
X709228Y233232D01*
X712156Y234445D01*
X715324Y234445D01*
X718252Y233232D01*
X720492Y230992D01*
X721705Y228064D01*
X721705Y212016D01*
X720492Y209088D01*
X718252Y206848D01*
X715324Y205635D01*
X712156Y205635D01*
G37*
%LPD*%
%LPC*%
G36*
X661356Y205635D02*
X661356Y205635D01*
X658428Y206848D01*
X656188Y209088D01*
X654975Y212016D01*
X654975Y228064D01*
X656188Y230992D01*
X658428Y233232D01*
X661356Y234445D01*
X664524Y234445D01*
X667452Y233232D01*
X669692Y230992D01*
X670905Y228064D01*
X670905Y212016D01*
X669692Y209088D01*
X667452Y206848D01*
X664524Y205635D01*
X661356Y205635D01*
G37*
%LPD*%
%LPC*%
G36*
X610556Y205635D02*
X610556Y205635D01*
X607628Y206848D01*
X605388Y209088D01*
X604175Y212016D01*
X604175Y228064D01*
X605388Y230992D01*
X607628Y233232D01*
X610556Y234445D01*
X613724Y234445D01*
X616652Y233232D01*
X618892Y230992D01*
X620105Y228064D01*
X620105Y212016D01*
X618892Y209088D01*
X616652Y206848D01*
X613724Y205635D01*
X610556Y205635D01*
G37*
%LPD*%
%LPC*%
G36*
X585156Y126235D02*
X585156Y126235D01*
X582228Y127448D01*
X579988Y129688D01*
X578775Y132616D01*
X578775Y148664D01*
X579988Y151592D01*
X582228Y153832D01*
X585156Y155045D01*
X588324Y155045D01*
X591252Y153832D01*
X593492Y151592D01*
X594705Y148664D01*
X594705Y132616D01*
X593492Y129688D01*
X591252Y127448D01*
X588324Y126235D01*
X585156Y126235D01*
G37*
%LPD*%
%LPC*%
G36*
X661356Y126235D02*
X661356Y126235D01*
X658428Y127448D01*
X656188Y129688D01*
X654975Y132616D01*
X654975Y148664D01*
X656188Y151592D01*
X658428Y153832D01*
X661356Y155045D01*
X664524Y155045D01*
X667452Y153832D01*
X669692Y151592D01*
X670905Y148664D01*
X670905Y132616D01*
X669692Y129688D01*
X667452Y127448D01*
X664524Y126235D01*
X661356Y126235D01*
G37*
%LPD*%
%LPC*%
G36*
X712156Y126235D02*
X712156Y126235D01*
X709228Y127448D01*
X706988Y129688D01*
X705775Y132616D01*
X705775Y148664D01*
X706988Y151592D01*
X709228Y153832D01*
X712156Y155045D01*
X715324Y155045D01*
X718252Y153832D01*
X720492Y151592D01*
X721705Y148664D01*
X721705Y132616D01*
X720492Y129688D01*
X718252Y127448D01*
X715324Y126235D01*
X712156Y126235D01*
G37*
%LPD*%
%LPC*%
G36*
X737556Y126235D02*
X737556Y126235D01*
X734628Y127448D01*
X732388Y129688D01*
X731175Y132616D01*
X731175Y148664D01*
X732388Y151592D01*
X734628Y153832D01*
X737556Y155045D01*
X740724Y155045D01*
X743652Y153832D01*
X745892Y151592D01*
X747105Y148664D01*
X747105Y132616D01*
X745892Y129688D01*
X743652Y127448D01*
X740724Y126235D01*
X737556Y126235D01*
G37*
%LPD*%
%LPC*%
G36*
X610556Y126235D02*
X610556Y126235D01*
X607628Y127448D01*
X605388Y129688D01*
X604175Y132616D01*
X604175Y148664D01*
X605388Y151592D01*
X607628Y153832D01*
X610556Y155045D01*
X613724Y155045D01*
X616652Y153832D01*
X618892Y151592D01*
X620105Y148664D01*
X620105Y132616D01*
X618892Y129688D01*
X616652Y127448D01*
X613724Y126235D01*
X610556Y126235D01*
G37*
%LPD*%
%LPC*%
G36*
X635956Y126235D02*
X635956Y126235D01*
X633028Y127448D01*
X630788Y129688D01*
X629575Y132616D01*
X629575Y148664D01*
X630788Y151592D01*
X633028Y153832D01*
X635956Y155045D01*
X639124Y155045D01*
X642052Y153832D01*
X644292Y151592D01*
X645505Y148664D01*
X645505Y132616D01*
X644292Y129688D01*
X642052Y127448D01*
X639124Y126235D01*
X635956Y126235D01*
G37*
%LPD*%
%LPC*%
G36*
X215903Y338908D02*
X215903Y338908D01*
X215010Y339801D01*
X215010Y357575D01*
X215903Y358468D01*
X233677Y358468D01*
X234570Y357575D01*
X234570Y339801D01*
X233677Y338908D01*
X215903Y338908D01*
G37*
%LPD*%
%LPC*%
G36*
X356873Y338400D02*
X356873Y338400D01*
X355980Y339293D01*
X355980Y357067D01*
X356873Y357960D01*
X374647Y357960D01*
X375540Y357067D01*
X375540Y339293D01*
X374647Y338400D01*
X356873Y338400D01*
G37*
%LPD*%
%LPC*%
G36*
X35060Y243571D02*
X35060Y243571D01*
X34167Y244464D01*
X34167Y262228D01*
X35060Y263121D01*
X52824Y263121D01*
X53717Y262228D01*
X53717Y244464D01*
X52824Y243571D01*
X35060Y243571D01*
G37*
%LPD*%
%LPC*%
G36*
X36076Y88669D02*
X36076Y88669D01*
X35183Y89562D01*
X35183Y107326D01*
X36076Y108219D01*
X53840Y108219D01*
X54733Y107326D01*
X54733Y89562D01*
X53840Y88669D01*
X36076Y88669D01*
G37*
%LPD*%
%LPC*%
G36*
X386422Y159793D02*
X386422Y159793D01*
X384133Y162082D01*
X384059Y162135D01*
X383989Y162195D01*
X383959Y162207D01*
X383933Y162226D01*
X383846Y162253D01*
X383761Y162287D01*
X383720Y162291D01*
X383698Y162298D01*
X383666Y162297D01*
X383595Y162305D01*
X369682Y162305D01*
X359745Y172242D01*
X359717Y172270D01*
X359643Y172323D01*
X359574Y172383D01*
X359544Y172395D01*
X359518Y172414D01*
X359431Y172441D01*
X359346Y172475D01*
X359305Y172479D01*
X359283Y172486D01*
X359250Y172485D01*
X359179Y172493D01*
X358482Y172493D01*
X355373Y175602D01*
X355373Y179998D01*
X358482Y183107D01*
X362878Y183107D01*
X365987Y179998D01*
X365987Y175602D01*
X365677Y175292D01*
X365665Y175276D01*
X365650Y175263D01*
X365594Y175176D01*
X365533Y175092D01*
X365528Y175073D01*
X365517Y175056D01*
X365491Y174956D01*
X365461Y174857D01*
X365462Y174837D01*
X365457Y174818D01*
X365465Y174715D01*
X365467Y174611D01*
X365474Y174593D01*
X365476Y174573D01*
X365516Y174478D01*
X365552Y174380D01*
X365564Y174365D01*
X365572Y174346D01*
X365677Y174215D01*
X371775Y168118D01*
X371849Y168065D01*
X371918Y168005D01*
X371948Y167993D01*
X371974Y167974D01*
X372061Y167947D01*
X372146Y167913D01*
X372187Y167909D01*
X372209Y167902D01*
X372242Y167903D01*
X372313Y167895D01*
X383595Y167895D01*
X383685Y167909D01*
X383776Y167917D01*
X383805Y167929D01*
X383837Y167934D01*
X383918Y167977D01*
X384002Y168013D01*
X384034Y168039D01*
X384055Y168050D01*
X384077Y168073D01*
X384133Y168118D01*
X386422Y170407D01*
X390818Y170407D01*
X393927Y167298D01*
X393927Y162902D01*
X390818Y159793D01*
X386422Y159793D01*
G37*
%LPD*%
%LPC*%
G36*
X277274Y200860D02*
X277274Y200860D01*
X273680Y202349D01*
X270929Y205100D01*
X269440Y208694D01*
X269440Y212585D01*
X270929Y216179D01*
X273680Y218930D01*
X277274Y220419D01*
X281165Y220419D01*
X284759Y218930D01*
X287510Y216179D01*
X288999Y212585D01*
X288999Y208694D01*
X287510Y205100D01*
X284759Y202349D01*
X281165Y200860D01*
X277274Y200860D01*
G37*
%LPD*%
%LPC*%
G36*
X313195Y236781D02*
X313195Y236781D01*
X309601Y238270D01*
X306850Y241021D01*
X305361Y244615D01*
X305361Y248506D01*
X306850Y252100D01*
X309601Y254851D01*
X313195Y256340D01*
X317086Y256340D01*
X320680Y254851D01*
X323431Y252100D01*
X324920Y248506D01*
X324920Y244615D01*
X323431Y241021D01*
X320680Y238270D01*
X317086Y236781D01*
X313195Y236781D01*
G37*
%LPD*%
%LPC*%
G36*
X43014Y138669D02*
X43014Y138669D01*
X39421Y140157D01*
X36671Y142907D01*
X35183Y146500D01*
X35183Y150388D01*
X36671Y153981D01*
X39421Y156731D01*
X43014Y158219D01*
X46902Y158219D01*
X50495Y156731D01*
X53245Y153981D01*
X54733Y150388D01*
X54733Y146500D01*
X53245Y142907D01*
X50495Y140157D01*
X46902Y138669D01*
X43014Y138669D01*
G37*
%LPD*%
%LPC*%
G36*
X41998Y193571D02*
X41998Y193571D01*
X38405Y195059D01*
X35655Y197809D01*
X34167Y201402D01*
X34167Y205290D01*
X35655Y208883D01*
X38405Y211633D01*
X41998Y213121D01*
X45886Y213121D01*
X49479Y211633D01*
X52229Y208883D01*
X53717Y205290D01*
X53717Y201402D01*
X52229Y197809D01*
X49479Y195059D01*
X45886Y193571D01*
X41998Y193571D01*
G37*
%LPD*%
%LPC*%
G36*
X265706Y35559D02*
X265706Y35559D01*
X260349Y40916D01*
X260349Y48492D01*
X265706Y53849D01*
X273282Y53849D01*
X278639Y48492D01*
X278639Y40916D01*
X273282Y35559D01*
X265706Y35559D01*
G37*
%LPD*%
%LPC*%
G36*
X333082Y60733D02*
X333082Y60733D01*
X329973Y63842D01*
X329973Y68238D01*
X332262Y70527D01*
X332307Y70590D01*
X332354Y70638D01*
X332361Y70654D01*
X332375Y70671D01*
X332387Y70701D01*
X332406Y70727D01*
X332428Y70798D01*
X332457Y70861D01*
X332459Y70880D01*
X332467Y70899D01*
X332471Y70940D01*
X332478Y70962D01*
X332477Y70994D01*
X332485Y71065D01*
X332485Y83672D01*
X332482Y83692D01*
X332484Y83711D01*
X332462Y83813D01*
X332446Y83915D01*
X332436Y83932D01*
X332432Y83952D01*
X332379Y84041D01*
X332330Y84132D01*
X332316Y84146D01*
X332306Y84163D01*
X332227Y84230D01*
X332152Y84301D01*
X332134Y84310D01*
X332119Y84323D01*
X332023Y84362D01*
X331929Y84405D01*
X331909Y84407D01*
X331891Y84415D01*
X331724Y84433D01*
X329702Y84433D01*
X326593Y87542D01*
X326593Y91938D01*
X329702Y95047D01*
X334098Y95047D01*
X337207Y91938D01*
X337207Y88701D01*
X337222Y88611D01*
X337229Y88520D01*
X337241Y88490D01*
X337247Y88458D01*
X337289Y88377D01*
X337325Y88294D01*
X337351Y88261D01*
X337362Y88241D01*
X337385Y88219D01*
X337430Y88163D01*
X338075Y87518D01*
X338075Y71065D01*
X338078Y71046D01*
X338076Y71027D01*
X338091Y70957D01*
X338097Y70884D01*
X338109Y70855D01*
X338114Y70823D01*
X338124Y70804D01*
X338128Y70787D01*
X338163Y70728D01*
X338193Y70658D01*
X338219Y70626D01*
X338230Y70605D01*
X338245Y70590D01*
X338254Y70576D01*
X338269Y70563D01*
X338298Y70527D01*
X340587Y68238D01*
X340587Y63842D01*
X337478Y60733D01*
X333082Y60733D01*
G37*
%LPD*%
%LPC*%
G36*
X596220Y462645D02*
X596220Y462645D01*
X593087Y463943D01*
X590689Y466341D01*
X589391Y469474D01*
X589391Y472866D01*
X590689Y475999D01*
X593087Y478397D01*
X596220Y479695D01*
X599612Y479695D01*
X602745Y478397D01*
X605143Y475999D01*
X606441Y472866D01*
X606441Y469474D01*
X605143Y466341D01*
X602745Y463943D01*
X599612Y462645D01*
X596220Y462645D01*
G37*
%LPD*%
%LPC*%
G36*
X621620Y462645D02*
X621620Y462645D01*
X618487Y463943D01*
X616089Y466341D01*
X614791Y469474D01*
X614791Y472866D01*
X616089Y475999D01*
X618487Y478397D01*
X621620Y479695D01*
X625012Y479695D01*
X628145Y478397D01*
X630543Y475999D01*
X631841Y472866D01*
X631841Y469474D01*
X630543Y466341D01*
X628145Y463943D01*
X625012Y462645D01*
X621620Y462645D01*
G37*
%LPD*%
%LPC*%
G36*
X697820Y462645D02*
X697820Y462645D01*
X694687Y463943D01*
X692289Y466341D01*
X690991Y469474D01*
X690991Y472866D01*
X692289Y475999D01*
X694687Y478397D01*
X697820Y479695D01*
X701212Y479695D01*
X704345Y478397D01*
X706743Y475999D01*
X708041Y472866D01*
X708041Y469474D01*
X706743Y466341D01*
X704345Y463943D01*
X701212Y462645D01*
X697820Y462645D01*
G37*
%LPD*%
%LPC*%
G36*
X672420Y462645D02*
X672420Y462645D01*
X669287Y463943D01*
X666889Y466341D01*
X665591Y469474D01*
X665591Y472866D01*
X666889Y475999D01*
X669287Y478397D01*
X672420Y479695D01*
X675812Y479695D01*
X678945Y478397D01*
X681343Y475999D01*
X682641Y472866D01*
X682641Y469474D01*
X681343Y466341D01*
X678945Y463943D01*
X675812Y462645D01*
X672420Y462645D01*
G37*
%LPD*%
%LPC*%
G36*
X697820Y310245D02*
X697820Y310245D01*
X694687Y311543D01*
X692289Y313941D01*
X690991Y317074D01*
X690991Y320466D01*
X692289Y323599D01*
X694687Y325997D01*
X697820Y327295D01*
X701212Y327295D01*
X704345Y325997D01*
X706743Y323599D01*
X708041Y320466D01*
X708041Y317074D01*
X706743Y313941D01*
X704345Y311543D01*
X701212Y310245D01*
X697820Y310245D01*
G37*
%LPD*%
%LPC*%
G36*
X204723Y189483D02*
X204723Y189483D01*
X204723Y197105D01*
X210705Y197105D01*
X212471Y196753D01*
X214136Y196064D01*
X215634Y195063D01*
X216907Y193790D01*
X217908Y192292D01*
X218597Y190627D01*
X218825Y189483D01*
X204723Y189483D01*
G37*
%LPD*%
%LPC*%
G36*
X402081Y34289D02*
X402081Y34289D01*
X402081Y48391D01*
X403225Y48163D01*
X404890Y47474D01*
X406388Y46473D01*
X407661Y45200D01*
X408662Y43702D01*
X409351Y42037D01*
X409703Y40271D01*
X409703Y34289D01*
X402081Y34289D01*
G37*
%LPD*%
%LPC*%
G36*
X128523Y164083D02*
X128523Y164083D01*
X128523Y171705D01*
X134505Y171705D01*
X136271Y171353D01*
X137936Y170664D01*
X139434Y169663D01*
X140707Y168390D01*
X141708Y166892D01*
X142397Y165227D01*
X142625Y164083D01*
X128523Y164083D01*
G37*
%LPD*%
%LPC*%
G36*
X204723Y164083D02*
X204723Y164083D01*
X204723Y171705D01*
X210705Y171705D01*
X212471Y171353D01*
X214136Y170664D01*
X215634Y169663D01*
X216907Y168390D01*
X217908Y166892D01*
X218597Y165227D01*
X218825Y164083D01*
X204723Y164083D01*
G37*
%LPD*%
%LPC*%
G36*
X128523Y189483D02*
X128523Y189483D01*
X128523Y197105D01*
X134505Y197105D01*
X136271Y196753D01*
X137936Y196064D01*
X139434Y195063D01*
X140707Y193790D01*
X141708Y192292D01*
X142397Y190627D01*
X142625Y189483D01*
X128523Y189483D01*
G37*
%LPD*%
%LPC*%
G36*
X187575Y164083D02*
X187575Y164083D01*
X187803Y165227D01*
X188492Y166892D01*
X189493Y168390D01*
X190766Y169663D01*
X192264Y170664D01*
X193929Y171353D01*
X195695Y171705D01*
X201677Y171705D01*
X201677Y164083D01*
X187575Y164083D01*
G37*
%LPD*%
%LPC*%
G36*
X187575Y189483D02*
X187575Y189483D01*
X187803Y190627D01*
X188492Y192292D01*
X189493Y193790D01*
X190766Y195063D01*
X192264Y196064D01*
X193929Y196753D01*
X195695Y197105D01*
X201677Y197105D01*
X201677Y189483D01*
X187575Y189483D01*
G37*
%LPD*%
%LPC*%
G36*
X111375Y189483D02*
X111375Y189483D01*
X111603Y190627D01*
X112292Y192292D01*
X113293Y193790D01*
X114566Y195063D01*
X116064Y196064D01*
X117729Y196753D01*
X119495Y197105D01*
X125477Y197105D01*
X125477Y189483D01*
X111375Y189483D01*
G37*
%LPD*%
%LPC*%
G36*
X111375Y164083D02*
X111375Y164083D01*
X111603Y165227D01*
X112292Y166892D01*
X113293Y168390D01*
X114566Y169663D01*
X116064Y170664D01*
X117729Y171353D01*
X119495Y171705D01*
X125477Y171705D01*
X125477Y164083D01*
X111375Y164083D01*
G37*
%LPD*%
%LPC*%
G36*
X128523Y178815D02*
X128523Y178815D01*
X128523Y186437D01*
X142625Y186437D01*
X142397Y185293D01*
X141708Y183628D01*
X140707Y182130D01*
X139434Y180857D01*
X137936Y179856D01*
X136271Y179167D01*
X134505Y178815D01*
X128523Y178815D01*
G37*
%LPD*%
%LPC*%
G36*
X204723Y178815D02*
X204723Y178815D01*
X204723Y186437D01*
X218825Y186437D01*
X218597Y185293D01*
X217908Y183628D01*
X216907Y182130D01*
X215634Y180857D01*
X214136Y179856D01*
X212471Y179167D01*
X210705Y178815D01*
X204723Y178815D01*
G37*
%LPD*%
%LPC*%
G36*
X204723Y153415D02*
X204723Y153415D01*
X204723Y161037D01*
X218825Y161037D01*
X218597Y159893D01*
X217908Y158228D01*
X216907Y156730D01*
X215634Y155457D01*
X214136Y154456D01*
X212471Y153767D01*
X210705Y153415D01*
X204723Y153415D01*
G37*
%LPD*%
%LPC*%
G36*
X391413Y34289D02*
X391413Y34289D01*
X391413Y40271D01*
X391765Y42037D01*
X392454Y43702D01*
X393455Y45200D01*
X394728Y46473D01*
X396226Y47474D01*
X397891Y48163D01*
X399035Y48391D01*
X399035Y34289D01*
X391413Y34289D01*
G37*
%LPD*%
%LPC*%
G36*
X195695Y153415D02*
X195695Y153415D01*
X193929Y153767D01*
X192264Y154456D01*
X190766Y155457D01*
X189493Y156730D01*
X188492Y158228D01*
X187803Y159893D01*
X187575Y161037D01*
X201677Y161037D01*
X201677Y153415D01*
X195695Y153415D01*
G37*
%LPD*%
%LPC*%
G36*
X195695Y178815D02*
X195695Y178815D01*
X193929Y179167D01*
X192264Y179856D01*
X190766Y180857D01*
X189493Y182130D01*
X188492Y183628D01*
X187803Y185293D01*
X187575Y186437D01*
X201677Y186437D01*
X201677Y178815D01*
X195695Y178815D01*
G37*
%LPD*%
%LPC*%
G36*
X119495Y178815D02*
X119495Y178815D01*
X117729Y179167D01*
X116064Y179856D01*
X114566Y180857D01*
X113293Y182130D01*
X112292Y183628D01*
X111603Y185293D01*
X111375Y186437D01*
X125477Y186437D01*
X125477Y178815D01*
X119495Y178815D01*
G37*
%LPD*%
%LPC*%
G36*
X689863Y142163D02*
X689863Y142163D01*
X689863Y155934D01*
X690960Y155716D01*
X692594Y155039D01*
X694065Y154056D01*
X695316Y152805D01*
X696299Y151334D01*
X696976Y149700D01*
X697321Y147965D01*
X697321Y142163D01*
X689863Y142163D01*
G37*
%LPD*%
%LPC*%
G36*
X766063Y142163D02*
X766063Y142163D01*
X766063Y155934D01*
X767160Y155716D01*
X768794Y155039D01*
X770265Y154056D01*
X771516Y152805D01*
X772499Y151334D01*
X773176Y149700D01*
X773521Y147965D01*
X773521Y142163D01*
X766063Y142163D01*
G37*
%LPD*%
%LPC*%
G36*
X766063Y139117D02*
X766063Y139117D01*
X773521Y139117D01*
X773521Y133315D01*
X773176Y131580D01*
X772499Y129946D01*
X771516Y128475D01*
X770265Y127224D01*
X768794Y126241D01*
X767160Y125564D01*
X766063Y125346D01*
X766063Y139117D01*
G37*
%LPD*%
%LPC*%
G36*
X689863Y139117D02*
X689863Y139117D01*
X697321Y139117D01*
X697321Y133315D01*
X696976Y131580D01*
X696299Y129946D01*
X695316Y128475D01*
X694065Y127224D01*
X692594Y126241D01*
X690960Y125564D01*
X689863Y125346D01*
X689863Y139117D01*
G37*
%LPD*%
%LPC*%
G36*
X755559Y142163D02*
X755559Y142163D01*
X755559Y147965D01*
X755904Y149700D01*
X756581Y151334D01*
X757564Y152805D01*
X758815Y154056D01*
X760286Y155039D01*
X761920Y155716D01*
X763017Y155934D01*
X763017Y142163D01*
X755559Y142163D01*
G37*
%LPD*%
%LPC*%
G36*
X679359Y142163D02*
X679359Y142163D01*
X679359Y147965D01*
X679704Y149700D01*
X680381Y151334D01*
X681364Y152805D01*
X682615Y154056D01*
X684086Y155039D01*
X685720Y155716D01*
X686817Y155934D01*
X686817Y142163D01*
X679359Y142163D01*
G37*
%LPD*%
%LPC*%
G36*
X685720Y125564D02*
X685720Y125564D01*
X684086Y126241D01*
X682615Y127224D01*
X681364Y128475D01*
X680381Y129946D01*
X679704Y131580D01*
X679359Y133315D01*
X679359Y139117D01*
X686817Y139117D01*
X686817Y125346D01*
X685720Y125564D01*
G37*
%LPD*%
%LPC*%
G36*
X761920Y125564D02*
X761920Y125564D01*
X760286Y126241D01*
X758815Y127224D01*
X757564Y128475D01*
X756581Y129946D01*
X755904Y131580D01*
X755559Y133315D01*
X755559Y139117D01*
X763017Y139117D01*
X763017Y125346D01*
X761920Y125564D01*
G37*
%LPD*%
%LPC*%
G36*
X226313Y375211D02*
X226313Y375211D01*
X226313Y384377D01*
X227318Y384218D01*
X228934Y383693D01*
X230448Y382921D01*
X231823Y381922D01*
X233024Y380721D01*
X234023Y379346D01*
X234795Y377832D01*
X235320Y376216D01*
X235479Y375211D01*
X226313Y375211D01*
G37*
%LPD*%
%LPC*%
G36*
X367283Y374703D02*
X367283Y374703D01*
X367283Y383869D01*
X368288Y383710D01*
X369904Y383185D01*
X371418Y382413D01*
X372793Y381414D01*
X373994Y380213D01*
X374993Y378838D01*
X375765Y377324D01*
X376290Y375708D01*
X376449Y374703D01*
X367283Y374703D01*
G37*
%LPD*%
%LPC*%
G36*
X355071Y374703D02*
X355071Y374703D01*
X355230Y375708D01*
X355755Y377324D01*
X356527Y378838D01*
X357526Y380213D01*
X358727Y381414D01*
X360102Y382413D01*
X361616Y383185D01*
X363232Y383710D01*
X364237Y383869D01*
X364237Y374703D01*
X355071Y374703D01*
G37*
%LPD*%
%LPC*%
G36*
X367283Y371657D02*
X367283Y371657D01*
X376449Y371657D01*
X376290Y370652D01*
X375765Y369036D01*
X374993Y367522D01*
X373994Y366147D01*
X372793Y364946D01*
X371418Y363947D01*
X369904Y363175D01*
X368288Y362650D01*
X367283Y362491D01*
X367283Y371657D01*
G37*
%LPD*%
%LPC*%
G36*
X226313Y372165D02*
X226313Y372165D01*
X235479Y372165D01*
X235320Y371160D01*
X234795Y369544D01*
X234023Y368030D01*
X233024Y366655D01*
X231823Y365454D01*
X230448Y364455D01*
X228934Y363683D01*
X227318Y363158D01*
X226313Y362999D01*
X226313Y372165D01*
G37*
%LPD*%
%LPC*%
G36*
X214101Y375211D02*
X214101Y375211D01*
X214260Y376216D01*
X214785Y377832D01*
X215557Y379346D01*
X216556Y380721D01*
X217757Y381922D01*
X219132Y382921D01*
X220646Y383693D01*
X222262Y384218D01*
X223267Y384377D01*
X223267Y375211D01*
X214101Y375211D01*
G37*
%LPD*%
%LPC*%
G36*
X222262Y363158D02*
X222262Y363158D01*
X220646Y363683D01*
X219132Y364455D01*
X217757Y365454D01*
X216556Y366655D01*
X215557Y368030D01*
X214785Y369544D01*
X214260Y371160D01*
X214101Y372165D01*
X223267Y372165D01*
X223267Y362999D01*
X222262Y363158D01*
G37*
%LPD*%
%LPC*%
G36*
X363232Y362650D02*
X363232Y362650D01*
X361616Y363175D01*
X360102Y363947D01*
X358727Y364946D01*
X357526Y366147D01*
X356527Y367522D01*
X355755Y369036D01*
X355230Y370652D01*
X355071Y371657D01*
X364237Y371657D01*
X364237Y362491D01*
X363232Y362650D01*
G37*
%LPD*%
%LPC*%
G36*
X208533Y20827D02*
X208533Y20827D01*
X208533Y23513D01*
X214485Y29465D01*
X217171Y29465D01*
X217171Y20827D01*
X208533Y20827D01*
G37*
%LPD*%
%LPC*%
G36*
X650239Y320293D02*
X650239Y320293D01*
X650239Y328195D01*
X651499Y327944D01*
X653235Y327225D01*
X654798Y326181D01*
X656127Y324852D01*
X657171Y323289D01*
X657890Y321553D01*
X658141Y320293D01*
X650239Y320293D01*
G37*
%LPD*%
%LPC*%
G36*
X650239Y472693D02*
X650239Y472693D01*
X650239Y480595D01*
X651499Y480344D01*
X653235Y479625D01*
X654798Y478581D01*
X656127Y477252D01*
X657171Y475689D01*
X657890Y473953D01*
X658141Y472693D01*
X650239Y472693D01*
G37*
%LPD*%
%LPC*%
G36*
X639291Y472693D02*
X639291Y472693D01*
X639542Y473953D01*
X640261Y475689D01*
X641305Y477252D01*
X642634Y478581D01*
X644197Y479625D01*
X645933Y480344D01*
X647193Y480595D01*
X647193Y472693D01*
X639291Y472693D01*
G37*
%LPD*%
%LPC*%
G36*
X650239Y317247D02*
X650239Y317247D01*
X658141Y317247D01*
X657890Y315987D01*
X657171Y314251D01*
X656127Y312688D01*
X654798Y311359D01*
X653235Y310315D01*
X651499Y309596D01*
X650239Y309345D01*
X650239Y317247D01*
G37*
%LPD*%
%LPC*%
G36*
X650239Y469647D02*
X650239Y469647D01*
X658141Y469647D01*
X657890Y468387D01*
X657171Y466651D01*
X656127Y465088D01*
X654798Y463759D01*
X653235Y462715D01*
X651499Y461996D01*
X650239Y461745D01*
X650239Y469647D01*
G37*
%LPD*%
%LPC*%
G36*
X639291Y320293D02*
X639291Y320293D01*
X639542Y321553D01*
X640261Y323289D01*
X641305Y324852D01*
X642634Y326181D01*
X644197Y327225D01*
X645933Y327944D01*
X647193Y328195D01*
X647193Y320293D01*
X639291Y320293D01*
G37*
%LPD*%
%LPC*%
G36*
X645933Y309596D02*
X645933Y309596D01*
X644197Y310315D01*
X642634Y311359D01*
X641305Y312688D01*
X640261Y314251D01*
X639542Y315987D01*
X639291Y317247D01*
X647193Y317247D01*
X647193Y309345D01*
X645933Y309596D01*
G37*
%LPD*%
%LPC*%
G36*
X645933Y461996D02*
X645933Y461996D01*
X644197Y462715D01*
X642634Y463759D01*
X641305Y465088D01*
X640261Y466651D01*
X639542Y468387D01*
X639291Y469647D01*
X647193Y469647D01*
X647193Y461745D01*
X645933Y461996D01*
G37*
%LPD*%
%LPC*%
G36*
X203199Y162559D02*
X203199Y162559D01*
X203199Y162561D01*
X203201Y162561D01*
X203201Y162559D01*
X203199Y162559D01*
G37*
%LPD*%
%LPC*%
G36*
X764539Y140639D02*
X764539Y140639D01*
X764539Y140641D01*
X764541Y140641D01*
X764541Y140639D01*
X764539Y140639D01*
G37*
%LPD*%
%LPC*%
G36*
X126999Y187959D02*
X126999Y187959D01*
X126999Y187961D01*
X127001Y187961D01*
X127001Y187959D01*
X126999Y187959D01*
G37*
%LPD*%
%LPC*%
G36*
X203199Y187959D02*
X203199Y187959D01*
X203199Y187961D01*
X203201Y187961D01*
X203201Y187959D01*
X203199Y187959D01*
G37*
%LPD*%
%LPC*%
G36*
X224789Y373687D02*
X224789Y373687D01*
X224789Y373689D01*
X224791Y373689D01*
X224791Y373687D01*
X224789Y373687D01*
G37*
%LPD*%
%LPC*%
G36*
X365759Y373179D02*
X365759Y373179D01*
X365759Y373181D01*
X365761Y373181D01*
X365761Y373179D01*
X365759Y373179D01*
G37*
%LPD*%
%LPC*%
G36*
X648715Y318769D02*
X648715Y318769D01*
X648715Y318771D01*
X648717Y318771D01*
X648717Y318769D01*
X648715Y318769D01*
G37*
%LPD*%
%LPC*%
G36*
X648715Y471169D02*
X648715Y471169D01*
X648715Y471171D01*
X648717Y471171D01*
X648717Y471169D01*
X648715Y471169D01*
G37*
%LPD*%
%LPC*%
G36*
X688339Y140639D02*
X688339Y140639D01*
X688339Y140641D01*
X688341Y140641D01*
X688341Y140639D01*
X688339Y140639D01*
G37*
%LPD*%
D10*
X224790Y348688D03*
D11*
X224790Y373688D03*
D10*
X365760Y348180D03*
D11*
X365760Y373180D03*
D12*
X133604Y264160D02*
X120396Y264160D01*
X120396Y238760D02*
X133604Y238760D01*
X133604Y213360D02*
X120396Y213360D01*
X120396Y187960D02*
X133604Y187960D01*
X133604Y162560D02*
X120396Y162560D01*
X120396Y137160D02*
X133604Y137160D01*
X133604Y111760D02*
X120396Y111760D01*
X120396Y86360D02*
X133604Y86360D01*
X196596Y86360D02*
X209804Y86360D01*
X209804Y111760D02*
X196596Y111760D01*
X196596Y137160D02*
X209804Y137160D01*
X209804Y162560D02*
X196596Y162560D01*
X196596Y187960D02*
X209804Y187960D01*
X209804Y213360D02*
X196596Y213360D01*
X196596Y238760D02*
X209804Y238760D01*
X209804Y264160D02*
X196596Y264160D01*
D13*
X43942Y253346D03*
D14*
X43942Y203346D03*
D13*
X44958Y98444D03*
D14*
X44958Y148444D03*
D12*
X400558Y39370D02*
X400558Y26162D01*
X349758Y26162D02*
X349758Y39370D01*
X375158Y39370D02*
X375158Y26162D01*
D15*
X218694Y19304D03*
X218694Y44704D03*
X244094Y19304D03*
X244094Y44704D03*
X269494Y19304D03*
X269494Y44704D03*
X294894Y19304D03*
X294894Y44704D03*
D16*
X586740Y134200D02*
X586740Y147080D01*
X612140Y147080D02*
X612140Y134200D01*
X637540Y134200D02*
X637540Y147080D01*
X662940Y147080D02*
X662940Y134200D01*
X688340Y134200D02*
X688340Y147080D01*
X713740Y147080D02*
X713740Y134200D01*
X739140Y134200D02*
X739140Y147080D01*
X764540Y147080D02*
X764540Y134200D01*
X764540Y213600D02*
X764540Y226480D01*
X739140Y226480D02*
X739140Y213600D01*
X713740Y213600D02*
X713740Y226480D01*
X688340Y226480D02*
X688340Y213600D01*
X662940Y213600D02*
X662940Y226480D01*
X637540Y226480D02*
X637540Y213600D01*
X612140Y213600D02*
X612140Y226480D01*
X586740Y226480D02*
X586740Y213600D01*
D17*
X597916Y318770D03*
D18*
X623316Y318770D03*
X648716Y318770D03*
X674116Y318770D03*
X699516Y318770D03*
X699516Y471170D03*
X674116Y471170D03*
X648716Y471170D03*
X623316Y471170D03*
X597916Y471170D03*
D11*
X315141Y246561D03*
X279219Y210639D03*
D19*
X513080Y238760D03*
X439420Y274320D03*
D20*
X459740Y274320D01*
X462280Y276860D01*
X474980Y276860D01*
X513080Y238760D01*
D19*
X331900Y89740D03*
D20*
X335280Y86360D01*
X335280Y66040D01*
D19*
X335280Y66040D03*
X388620Y165100D03*
D20*
X370840Y165100D01*
X360680Y175260D01*
X360680Y177800D01*
D19*
X360680Y177800D03*
X91440Y124460D03*
D21*
X116840Y149860D01*
X154940Y149860D01*
X180340Y175260D01*
X180340Y210820D01*
X182880Y213360D01*
X203200Y213360D01*
D19*
X95250Y97790D03*
D21*
X168910Y97790D01*
X177800Y106680D02*
X177800Y144780D01*
X195580Y144780D01*
X203200Y137160D01*
X177800Y106680D02*
X168910Y97790D01*
D19*
X300560Y171880D03*
D20*
X270080Y171880D01*
X215900Y226060D02*
X157480Y226060D01*
X157480Y264160D01*
X127000Y264160D01*
X215900Y226060D02*
X270080Y171880D01*
D19*
X308610Y186690D03*
D20*
X262890Y186690D01*
X210820Y238760D01*
X203200Y238760D01*
D19*
X731520Y294640D03*
D20*
X728980Y292100D01*
X624586Y292100D02*
X597916Y318770D01*
X624586Y292100D02*
X728980Y292100D01*
D19*
X721360Y317500D03*
D20*
X721360Y330200D01*
X718820Y332740D01*
X683260Y332740D01*
X674116Y323596D02*
X674116Y318770D01*
X674116Y323596D02*
X683260Y332740D01*
D19*
X711200Y299720D03*
D20*
X711200Y302260D01*
X642366Y302260D01*
X625856Y318770D01*
X623316Y318770D01*
D19*
X317500Y53340D03*
D20*
X317500Y124460D01*
D19*
X317500Y124460D03*
X713740Y22860D03*
D20*
X713740Y12197D01*
X302001Y12197D02*
X294894Y19304D01*
X302001Y12197D02*
X713740Y12197D01*
D19*
X284480Y68580D03*
D20*
X284480Y93980D01*
X309880Y93980D01*
D19*
X309880Y93980D03*
X673100Y27940D03*
D20*
X415627Y27940D01*
X404451Y16764D01*
X322834Y16764D01*
X294894Y44704D01*
D19*
X505460Y180340D03*
D20*
X505460Y104140D01*
D19*
X505460Y104140D03*
X345440Y76200D03*
D20*
X353060Y83820D01*
X414020Y83820D01*
X421640Y91440D01*
X421640Y129540D02*
X469900Y177800D01*
X469900Y177836D01*
D19*
X469900Y177836D03*
D20*
X421640Y129540D02*
X421640Y91440D01*
D19*
X244094Y44704D03*
X335280Y132080D03*
D20*
X289560Y132080D02*
X244094Y86614D01*
X289560Y132080D02*
X335280Y132080D01*
X244094Y86614D02*
X244094Y44704D01*
X243078Y20320D02*
X244094Y19304D01*
X243078Y20320D02*
X233680Y20320D01*
X229108Y49018D02*
X228600Y49526D01*
X228600Y81280D01*
X229108Y24892D02*
X233680Y20320D01*
X229108Y24892D02*
X229108Y49018D01*
X228600Y81280D02*
X287020Y139700D01*
X332740Y139700D01*
X350520Y157480D01*
X350520Y193040D01*
X401320Y193040D01*
D19*
X401320Y193040D03*
M02*
