G04 EAGLE Gerber RS-274X export*
G75*
%MOMM*%
%FSLAX34Y34*%
%LPD*%
%INSoldermask Top*%
%IPPOS*%
%AMOC8*
5,1,8,0,0,1.08239X$1,22.5*%
G01*
%ADD10R,1.854200X1.854200*%
%ADD11C,1.854200*%
%ADD12R,1.203200X1.303200*%
%ADD13R,1.303200X1.203200*%
%ADD14R,1.473200X1.673200*%
%ADD15R,1.133200X1.113200*%
%ADD16C,1.303200*%
%ADD17C,3.003200*%
%ADD18R,5.603200X6.403200*%
%ADD19R,1.203200X1.803200*%
%ADD20C,1.524000*%
%ADD21R,2.203200X2.203200*%
%ADD22C,2.003200*%
%ADD23C,1.803200*%
%ADD24R,1.853200X1.853200*%
%ADD25C,1.853200*%
%ADD26P,1.869504X8X22.500000*%
%ADD27R,1.803200X2.503200*%
%ADD28C,1.491200*%
%ADD29R,1.603200X1.603200*%
%ADD30C,1.603200*%
%ADD31R,0.753200X1.703200*%
%ADD32R,1.703200X0.753200*%
%ADD33C,0.959600*%


D10*
X224790Y348688D03*
D11*
X224790Y373688D03*
D12*
X381000Y258010D03*
X381000Y240830D03*
X398780Y258010D03*
X398780Y240830D03*
D13*
X377390Y109220D03*
X360210Y109220D03*
X473510Y193040D03*
X490690Y193040D03*
D12*
X513080Y64570D03*
X513080Y81750D03*
D13*
G36*
X289453Y270785D02*
X280239Y261571D01*
X271731Y270079D01*
X280945Y279293D01*
X289453Y270785D01*
G37*
G36*
X301601Y282933D02*
X292387Y273719D01*
X283879Y282227D01*
X293093Y291441D01*
X301601Y282933D01*
G37*
G36*
X253893Y235225D02*
X244679Y226011D01*
X236171Y234519D01*
X245385Y243733D01*
X253893Y235225D01*
G37*
G36*
X266041Y247373D02*
X256827Y238159D01*
X248319Y246667D01*
X257533Y255881D01*
X266041Y247373D01*
G37*
D12*
X436880Y64570D03*
X436880Y81750D03*
X177800Y364690D03*
X177800Y347510D03*
X416560Y369770D03*
X416560Y352590D03*
D10*
X365760Y348180D03*
D11*
X365760Y373180D03*
D12*
X231140Y301190D03*
X231140Y284010D03*
X248920Y301190D03*
X248920Y284010D03*
X548640Y219510D03*
X548640Y236690D03*
X530860Y219510D03*
X530860Y236690D03*
X363220Y258010D03*
X363220Y240830D03*
D14*
X105500Y454660D03*
X148500Y454660D03*
D15*
X457200Y368280D03*
X457200Y353080D03*
D16*
X493032Y399490D02*
X493032Y408490D01*
X510032Y408490D02*
X510032Y399490D01*
X527032Y399490D02*
X527032Y408490D01*
X527032Y447490D02*
X527032Y456490D01*
X510032Y456490D02*
X510032Y447490D01*
X493032Y447490D02*
X493032Y456490D01*
D17*
X37592Y464312D03*
X763016Y466090D03*
X36322Y35814D03*
X762762Y36576D03*
D18*
X295656Y441306D03*
D19*
X272856Y368306D03*
X318456Y368306D03*
D20*
X133604Y264160D02*
X120396Y264160D01*
X120396Y238760D02*
X133604Y238760D01*
X133604Y213360D02*
X120396Y213360D01*
X120396Y187960D02*
X133604Y187960D01*
X133604Y162560D02*
X120396Y162560D01*
X120396Y137160D02*
X133604Y137160D01*
X133604Y111760D02*
X120396Y111760D01*
X120396Y86360D02*
X133604Y86360D01*
X196596Y86360D02*
X209804Y86360D01*
X209804Y111760D02*
X196596Y111760D01*
X196596Y137160D02*
X209804Y137160D01*
X209804Y162560D02*
X196596Y162560D01*
X196596Y187960D02*
X209804Y187960D01*
X209804Y213360D02*
X196596Y213360D01*
X196596Y238760D02*
X209804Y238760D01*
X209804Y264160D02*
X196596Y264160D01*
D21*
X114200Y413648D03*
X52700Y413648D03*
X52700Y303648D03*
X114200Y303648D03*
D22*
X97700Y358648D03*
D23*
X52700Y358648D03*
D24*
X43942Y253346D03*
D25*
X43942Y203346D03*
D24*
X44958Y98444D03*
D25*
X44958Y148444D03*
D12*
X660400Y260740D03*
X660400Y277740D03*
X619760Y88020D03*
X619760Y105020D03*
X744220Y88020D03*
X744220Y105020D03*
X655320Y88020D03*
X655320Y105020D03*
X690880Y88020D03*
X690880Y105020D03*
X708660Y88020D03*
X708660Y105020D03*
X673100Y88020D03*
X673100Y105020D03*
X436880Y369180D03*
X436880Y352180D03*
X528320Y82160D03*
X528320Y65160D03*
X454660Y82160D03*
X454660Y65160D03*
D20*
X400558Y39370D02*
X400558Y26162D01*
X349758Y26162D02*
X349758Y39370D01*
X375158Y39370D02*
X375158Y26162D01*
D12*
X678180Y260740D03*
X678180Y277740D03*
X695960Y260740D03*
X695960Y277740D03*
X713740Y260740D03*
X713740Y277740D03*
X731520Y260740D03*
X731520Y277740D03*
X624840Y260740D03*
X624840Y277740D03*
X642620Y260740D03*
X642620Y277740D03*
X726440Y88020D03*
X726440Y105020D03*
X637540Y88020D03*
X637540Y105020D03*
D26*
X218694Y19304D03*
X218694Y44704D03*
X244094Y19304D03*
X244094Y44704D03*
X269494Y19304D03*
X269494Y44704D03*
X294894Y19304D03*
X294894Y44704D03*
D27*
X557022Y24064D03*
X557022Y86064D03*
X485394Y23302D03*
X485394Y85302D03*
D28*
X586740Y134200D02*
X586740Y147080D01*
X612140Y147080D02*
X612140Y134200D01*
X637540Y134200D02*
X637540Y147080D01*
X662940Y147080D02*
X662940Y134200D01*
X688340Y134200D02*
X688340Y147080D01*
X713740Y147080D02*
X713740Y134200D01*
X739140Y134200D02*
X739140Y147080D01*
X764540Y147080D02*
X764540Y134200D01*
X764540Y213600D02*
X764540Y226480D01*
X739140Y226480D02*
X739140Y213600D01*
X713740Y213600D02*
X713740Y226480D01*
X688340Y226480D02*
X688340Y213600D01*
X662940Y213600D02*
X662940Y226480D01*
X637540Y226480D02*
X637540Y213600D01*
X612140Y213600D02*
X612140Y226480D01*
X586740Y226480D02*
X586740Y213600D01*
D29*
X597916Y318770D03*
D30*
X623316Y318770D03*
X648716Y318770D03*
X674116Y318770D03*
X699516Y318770D03*
X699516Y471170D03*
X674116Y471170D03*
X648716Y471170D03*
X623316Y471170D03*
X597916Y471170D03*
D31*
X409000Y218260D03*
X401000Y218260D03*
X393000Y218260D03*
X385000Y218260D03*
X377000Y218260D03*
X369000Y218260D03*
X361000Y218260D03*
X353000Y218260D03*
D32*
X338000Y203260D03*
X338000Y195260D03*
X338000Y187260D03*
X338000Y179260D03*
X338000Y171260D03*
X338000Y163260D03*
X338000Y155260D03*
X338000Y147260D03*
D31*
X353000Y132260D03*
X361000Y132260D03*
X369000Y132260D03*
X377000Y132260D03*
X385000Y132260D03*
X393000Y132260D03*
X401000Y132260D03*
X409000Y132260D03*
D32*
X424000Y147260D03*
X424000Y155260D03*
X424000Y163260D03*
X424000Y171260D03*
X424000Y179260D03*
X424000Y187260D03*
X424000Y195260D03*
X424000Y203260D03*
D11*
X315141Y246561D03*
X279219Y210639D03*
D12*
X528320Y376800D03*
X528320Y359800D03*
X492760Y376800D03*
X492760Y359800D03*
X510540Y376800D03*
X510540Y359800D03*
D33*
X513080Y238760D03*
X439420Y274320D03*
X331900Y89740D03*
X335280Y66040D03*
X388620Y165100D03*
X360680Y177800D03*
X91440Y124460D03*
X95250Y97790D03*
X300560Y171880D03*
X308610Y186690D03*
X731520Y294640D03*
X721360Y317500D03*
X711200Y299720D03*
X317500Y53340D03*
X317500Y124460D03*
X713740Y22860D03*
X284480Y68580D03*
X309880Y93980D03*
X673100Y27940D03*
X505460Y180340D03*
X505460Y104140D03*
X345440Y76200D03*
X469900Y177836D03*
X244094Y44704D03*
X335280Y132080D03*
X401320Y193040D03*
M02*
