G04 EAGLE Gerber RS-274X export*
G75*
%MOMM*%
%FSLAX34Y34*%
%LPD*%
%INSoldermask Bottom*%
%IPPOS*%
%AMOC8*
5,1,8,0,0,1.08239X$1,22.5*%
G01*
%ADD10R,1.854200X1.854200*%
%ADD11C,1.854200*%
%ADD12C,3.003200*%
%ADD13C,1.524000*%
%ADD14C,2.003200*%
%ADD15C,1.803200*%
%ADD16R,1.853200X1.853200*%
%ADD17C,1.853200*%
%ADD18P,1.869504X8X22.500000*%
%ADD19C,1.491200*%
%ADD20R,1.603200X1.603200*%
%ADD21C,1.603200*%
%ADD22C,0.959600*%


D10*
X224790Y348688D03*
D11*
X224790Y373688D03*
D10*
X365760Y348180D03*
D11*
X365760Y373180D03*
D12*
X37592Y464312D03*
X763016Y466090D03*
X36322Y35814D03*
X762762Y36576D03*
D13*
X133604Y264160D02*
X120396Y264160D01*
X120396Y238760D02*
X133604Y238760D01*
X133604Y213360D02*
X120396Y213360D01*
X120396Y187960D02*
X133604Y187960D01*
X133604Y162560D02*
X120396Y162560D01*
X120396Y137160D02*
X133604Y137160D01*
X133604Y111760D02*
X120396Y111760D01*
X120396Y86360D02*
X133604Y86360D01*
X196596Y86360D02*
X209804Y86360D01*
X209804Y111760D02*
X196596Y111760D01*
X196596Y137160D02*
X209804Y137160D01*
X209804Y162560D02*
X196596Y162560D01*
X196596Y187960D02*
X209804Y187960D01*
X209804Y213360D02*
X196596Y213360D01*
X196596Y238760D02*
X209804Y238760D01*
X209804Y264160D02*
X196596Y264160D01*
D14*
X97700Y358648D03*
D15*
X52700Y358648D03*
D16*
X43942Y253346D03*
D17*
X43942Y203346D03*
D16*
X44958Y98444D03*
D17*
X44958Y148444D03*
D13*
X400558Y39370D02*
X400558Y26162D01*
X349758Y26162D02*
X349758Y39370D01*
X375158Y39370D02*
X375158Y26162D01*
D18*
X218694Y19304D03*
X218694Y44704D03*
X244094Y19304D03*
X244094Y44704D03*
X269494Y19304D03*
X269494Y44704D03*
X294894Y19304D03*
X294894Y44704D03*
D19*
X586740Y134200D02*
X586740Y147080D01*
X612140Y147080D02*
X612140Y134200D01*
X637540Y134200D02*
X637540Y147080D01*
X662940Y147080D02*
X662940Y134200D01*
X688340Y134200D02*
X688340Y147080D01*
X713740Y147080D02*
X713740Y134200D01*
X739140Y134200D02*
X739140Y147080D01*
X764540Y147080D02*
X764540Y134200D01*
X764540Y213600D02*
X764540Y226480D01*
X739140Y226480D02*
X739140Y213600D01*
X713740Y213600D02*
X713740Y226480D01*
X688340Y226480D02*
X688340Y213600D01*
X662940Y213600D02*
X662940Y226480D01*
X637540Y226480D02*
X637540Y213600D01*
X612140Y213600D02*
X612140Y226480D01*
X586740Y226480D02*
X586740Y213600D01*
D20*
X597916Y318770D03*
D21*
X623316Y318770D03*
X648716Y318770D03*
X674116Y318770D03*
X699516Y318770D03*
X699516Y471170D03*
X674116Y471170D03*
X648716Y471170D03*
X623316Y471170D03*
X597916Y471170D03*
D11*
X315141Y246561D03*
X279219Y210639D03*
D22*
X513080Y238760D03*
X439420Y274320D03*
X331900Y89740D03*
X335280Y66040D03*
X388620Y165100D03*
X360680Y177800D03*
X91440Y124460D03*
X95250Y97790D03*
X300560Y171880D03*
X308610Y186690D03*
X731520Y294640D03*
X721360Y317500D03*
X711200Y299720D03*
X317500Y53340D03*
X317500Y124460D03*
X713740Y22860D03*
X284480Y68580D03*
X309880Y93980D03*
X673100Y27940D03*
X505460Y180340D03*
X505460Y104140D03*
X345440Y76200D03*
X469900Y177836D03*
X244094Y44704D03*
X335280Y132080D03*
X401320Y193040D03*
M02*
